<svg width="160" height="173" viewBox="0 0 160 173" fill="none" xmlns="http://www.w3.org/2000/svg">
<g clip-path="url(#clip0_26_350)">
<path d="M150.855 70.697C152.914 71.8806 157.015 74.2315 158.363 75.0314C160.521 76.3048 159.909 80.6473 159.909 84.1002C159.909 86.7367 155.527 88.1325 155.527 84.1002C155.527 80.8351 155.527 76.7701 155.527 76.7701L150.301 73.7907C149.574 73.3744 149.119 72.6071 149.119 71.7745V71.7663L150.855 70.697Z" fill="#FFA000"/>
<path d="M158.371 75.0314C158.371 75.0314 158.619 75.4314 157.751 75.8069C156.883 76.1905 156.188 75.8069 156.188 75.8069L149.127 71.7582L150.855 70.697L158.371 75.0314Z" fill="#FEB232"/>
<path d="M151.426 72.1745L153.609 103.536C153.658 104.213 152.922 104.662 152.327 104.327L62.558 53.1064L61.7394 14.1378L144.158 60.6732C148.375 63.0731 151.095 67.383 151.426 72.1745Z" fill="#FFA000"/>
<path d="M115.707 125.46L153.22 104.344L148.011 67.9462L100.584 76.566L115.707 125.46Z" fill="#FFA000"/>
<path d="M146.399 62.2405L105.156 86.3694L101.312 82.6554L143.86 60.5018C143.86 60.5018 144.861 61.0895 145.175 61.3099C145.729 61.6854 146.399 62.2405 146.399 62.2405Z" fill="#FAE8CA"/>
<path d="M113.838 93.3322L116.021 124.693C116.07 125.371 115.335 125.82 114.739 125.485L0 60.0529V21.4271L106.57 81.831C110.787 84.2308 113.507 88.5407 113.838 93.3322Z" fill="#FFA000"/>
<path d="M37.5877 0L0 21.4271L106.57 81.8309L143.86 60.5018L37.5877 0Z" fill="#FEB232"/>
<path d="M115.285 114.049C115.285 114.049 109.679 102.801 93.0433 93.724C73.9104 83.2839 0 40.4461 0 40.4461V23.8432L107.471 85.6429C107.471 85.6429 113.59 89.659 114.02 95.8708C114.45 102.091 115.285 114.049 115.285 114.049Z" fill="#464D5D"/>
<path d="M126.331 111.47L126.72 116.473C125.43 117.216 123.132 118.547 122.297 118.996C119.155 120.685 116.682 116.955 116.682 116.955L126.331 111.47Z" fill="white"/>
<path d="M144.522 100.989L151.823 96.8258C151.823 96.8258 153.452 101.177 148.532 104.001C147.019 104.866 146.696 105.054 144.919 106.09L144.522 100.989Z" fill="white"/>
<path d="M96.1108 114.857C95.7801 110.106 92.7208 105.233 89.1075 103.797C86.1144 102.605 83.6422 104.123 82.8236 107.274C84.4856 108.213 95.2922 114.171 96.1108 114.857Z" fill="#028985"/>
<path d="M85.023 114.857C84.4112 113.478 84.0391 111.968 83.9977 110.49C83.8903 106.49 86.2881 104.229 89.3473 105.446C92.3983 106.654 94.9532 110.866 95.069 114.857H85.023Z" fill="#4F2525"/>
<path d="M87.0322 108.964C86.9578 106.221 88.9752 110.923 92.9523 112.988C94.6721 113.886 96.4085 115.037 97.8058 115.82C97.4172 117.216 96.6648 118.041 95.623 118.473C95.4659 118.539 92.1337 119.983 92.1337 119.983L90.2403 118.726L92.3074 118.188C89.4548 116.775 87.1314 112.768 87.0322 108.964Z" fill="#4F2525"/>
<path d="M83.4851 110.491C83.5926 114.491 86.1558 118.719 89.215 119.935C92.2743 121.151 94.6638 118.89 94.5646 114.891C94.4571 110.891 91.894 106.663 88.8347 105.446C85.7754 104.238 83.3859 106.491 83.4851 110.491Z" fill="#663636"/>
<path d="M85.4778 111.282C85.5439 113.845 87.1893 116.547 89.1406 117.331C91.1002 118.106 92.6299 116.661 92.5637 114.098C92.4976 111.535 90.8522 108.833 88.9008 108.05C86.9495 107.282 85.4116 108.727 85.4778 111.282Z" fill="#824E4E"/>
<path d="M86.3873 111.649C86.4369 113.551 87.6606 115.567 89.1158 116.147C90.571 116.726 91.7121 115.649 91.6625 113.747C91.6128 111.845 90.3891 109.829 88.9339 109.249C87.4787 108.67 86.3377 109.739 86.3873 111.649Z" fill="white"/>
<path d="M35.1816 80.125C34.8509 75.3743 31.7916 70.5012 28.1784 69.0645C25.1853 67.8728 22.713 69.391 21.8945 72.5418C23.5647 73.4805 34.3631 79.4393 35.1816 80.125Z" fill="#028985"/>
<path d="M24.0938 80.1249C23.482 78.7454 23.1099 77.2353 23.0686 75.7578C22.9611 71.7581 25.3589 69.4971 28.4182 70.7133C31.4692 71.9214 34.0241 76.1333 34.1398 80.1249H24.0938Z" fill="#232731"/>
<path d="M26.1113 74.2396C26.0369 71.4969 28.0544 76.1986 32.0314 78.2638C33.7512 79.1617 35.4876 80.3126 36.8849 81.0962C36.4963 82.4921 35.7439 83.3165 34.7021 83.7491C34.545 83.8144 31.2128 85.2592 31.2128 85.2592L29.3194 84.0022L31.3865 83.4634C28.5339 82.0431 26.2105 78.0352 26.1113 74.2396Z" fill="#4F2525"/>
<path d="M22.5642 75.766C22.6717 79.7657 25.2349 83.994 28.2941 85.2102C31.3534 86.4265 33.743 84.1654 33.6437 80.1657C33.5362 76.166 30.9731 71.9377 27.9138 70.7215C24.8545 69.5052 22.4567 71.7663 22.5642 75.766Z" fill="#464D5D"/>
<path d="M24.5569 76.5578C24.623 79.1209 26.2684 81.8227 28.2197 82.6064C30.1793 83.3818 31.709 81.937 31.6428 79.3739C31.5767 76.8108 29.9313 74.109 27.98 73.3254C26.0204 72.5499 24.4907 73.9947 24.5569 76.5578Z" fill="#824E4E"/>
<path d="M25.4664 76.917C25.516 78.8189 26.7397 80.8351 28.1949 81.4146C29.6501 81.9942 30.7912 80.9167 30.7416 79.0148C30.6919 77.1129 29.4682 75.0967 28.013 74.5172C26.5578 73.9376 25.4168 75.0151 25.4664 76.917Z" fill="white"/>
<path d="M20.8609 72.003C20.5302 67.2523 17.4709 62.3792 13.8577 60.9426C10.8645 59.7508 8.39232 61.2691 7.57376 64.4199C9.23569 65.3586 20.0424 71.3173 20.8609 72.003Z" fill="#028985"/>
<path d="M9.77313 72.003C9.16128 70.6236 8.7892 69.1135 8.74786 67.636C8.64037 63.6363 11.0382 61.3752 14.0975 62.5915C17.1485 63.7995 19.7034 68.0115 19.8191 72.003H9.77313Z" fill="#232731"/>
<path d="M11.7906 66.1096C11.7162 63.3669 13.7336 68.0686 17.7107 70.1338C19.4305 71.0317 21.1669 72.1826 22.5642 72.9662C22.1756 74.362 21.4314 75.1865 20.3814 75.6191C20.2243 75.6844 16.8921 77.1292 16.8921 77.1292L14.9987 75.8721L17.0658 75.3334C14.2132 73.9131 11.8898 69.9134 11.7906 66.1096Z" fill="#232731"/>
<path d="M8.23522 67.6367C8.34271 71.6364 10.9059 75.8647 13.9652 77.0809C17.0244 78.2971 19.414 76.0361 19.3147 72.0364C19.2073 68.0367 16.6441 63.8084 13.5848 62.5921C10.5255 61.3841 8.136 63.637 8.23522 67.6367Z" fill="#464D5D"/>
<path d="M10.2279 68.4278C10.294 70.9909 11.9394 73.6927 13.8907 74.4764C15.8503 75.2518 17.38 73.807 17.3138 71.2439C17.2477 68.6808 15.6023 65.979 13.651 65.1954C11.6996 64.4199 10.1617 65.8647 10.2279 68.4278Z" fill="#232731"/>
<path d="M11.1374 68.787C11.187 70.6889 12.4107 72.7051 13.8659 73.2846C15.3212 73.8642 16.4622 72.7867 16.4126 70.8848C16.363 68.9829 15.1393 66.9667 13.684 66.3871C12.2288 65.8076 11.0878 66.8851 11.1374 68.787Z" fill="white"/>
<path d="M109.844 122.693L110.423 123.02V95.5198H109.844V122.693Z" fill="#FFA000"/>
<path d="M97.227 115.518L97.8058 115.853V88.3447H97.227V115.518Z" fill="#FFA000"/>
<path d="M75.2912 93.626L75.87 93.9607V66.4524H75.2912V93.626Z" fill="#FFA000"/>
<path d="M89.5292 100.744L90.108 101.079V73.5703H89.5292V100.744Z" fill="#FFA000"/>
<path d="M60.3008 84.4348L60.8795 84.7613V57.2612H60.3008V84.4348Z" fill="#FFA000"/>
<path d="M45.8891 48.8863V75.5783L45.3103 75.2518V48.6006C45.5005 48.6986 45.6907 48.7966 45.8891 48.8863Z" fill="#FFA000"/>
<path d="M30.8987 40.0625V66.379L30.3199 66.0525V39.638C30.5183 39.7686 30.7085 39.9155 30.8987 40.0625Z" fill="#FFA000"/>
<path d="M15.9082 30.9121V57.1877L15.3294 56.8612V30.5774C15.5196 30.6835 15.718 30.7978 15.9082 30.9121Z" fill="#FFA000"/>
<path d="M126.331 111.47L144.522 100.989L144.571 101.65L126.381 112.123L126.331 111.47Z" fill="#464D5D"/>
<path d="M126.439 112.833L144.637 102.45L144.687 103.103L126.497 113.576L126.439 112.833Z" fill="#464D5D"/>
<path d="M144.919 106.09L126.72 116.473L126.67 115.82L144.869 105.437L144.919 106.09Z" fill="#464D5D"/>
<path d="M144.745 103.903L144.803 104.637L126.613 115.11L126.555 114.286L144.745 103.903Z" fill="#464D5D"/>
<path d="M144.869 105.437L126.67 115.82L126.613 115.11L144.803 104.637L144.869 105.437Z" fill="#232731"/>
<path d="M126.497 113.576L144.687 103.103L144.745 103.903L126.555 114.286L126.497 113.576Z" fill="#232731"/>
<path d="M126.381 112.123L144.571 101.65L144.637 102.45L126.439 112.833L126.381 112.123Z" fill="#232731"/>
<path d="M149.979 94.2545L115.285 114.049L114.351 100.899C121.015 97.0951 130.482 91.7078 137.213 87.9529C144.125 84.092 147.994 89.4222 149.979 94.2545Z" fill="#232731"/>
<path d="M151.542 73.7499L152.856 92.6138L149.979 94.2546C147.994 89.4304 144.117 84.092 137.213 87.953C130.49 91.7078 121.023 97.0952 114.351 100.899L113.946 95.1933L151.542 73.7499Z" fill="#464D5D"/>
<path d="M111.349 93.1526C113.408 94.3362 117.509 96.687 118.857 97.4788C121.015 98.7522 120.403 103.095 120.403 106.548C120.403 109.184 116.021 110.58 116.021 106.548C116.021 103.282 116.021 99.2175 116.021 99.2175L110.795 96.2381C110.068 95.8218 109.613 95.0545 109.613 94.2219V94.2137L111.349 93.1526Z" fill="#FFA000"/>
<path d="M118.857 97.487C118.857 97.487 119.105 97.8869 118.237 98.2624C117.369 98.6461 116.674 98.2624 116.674 98.2624L109.613 94.2137L111.341 93.1526L118.857 97.487Z" fill="#FEB232"/>
<path d="M112.887 49.9393L86.594 64.9913L81.7984 58.3387L108.092 43.2867L112.887 49.9393Z" fill="#FAE8CA"/>
<path d="M86.594 64.9914L36.8849 36.626V32.7242L81.7984 58.3388L86.594 64.9914Z" fill="#FFA000"/>
<path d="M108.092 43.2868L81.7984 58.3387L36.8849 32.7242L63.0706 17.7049L108.092 43.2868Z" fill="white"/>
<path d="M82.1539 91.3649V103.895L40.1344 79.929V67.3829L82.1539 91.3649ZM53.5125 75.3089V87.2672L67.8249 95.4299V83.4716L53.5125 75.3089ZM81.8976 91.5118L68.073 83.6267V95.585L81.8976 103.47V91.5118ZM40.3907 79.7821L53.2644 87.1203V75.162L40.3907 67.8156V79.7821Z" fill="#663636"/>
<path d="M149.549 72.6968L115.822 92.0261L114.789 87.9447L148.689 68.3788L149.549 72.6968Z" fill="#232731"/>
<path d="M10.9472 131.55C10.9472 131.55 10.5752 133.101 9.66565 133.313C8.75614 133.525 7.61511 132.701 7.61511 132.701C7.61511 132.701 8.57424 128.938 8.7396 128.938C8.9215 128.946 11.9642 128.913 10.9472 131.55Z" fill="#C48B0C"/>
<path d="M58.4321 158.487C58.4321 158.487 58.06 160.038 57.1505 160.25C56.241 160.462 55.1 159.809 55.1 159.809C55.1 159.809 56.0591 155.875 56.2245 155.875C56.4146 155.875 59.4574 155.85 58.4321 158.487Z" fill="#C48B0C"/>
<path d="M99.8315 120.311L105.289 117.201C106.008 116.793 106.595 115.683 106.595 114.736V112.067C106.595 111.12 106.008 110.679 105.289 111.087L99.8315 114.197C99.1122 114.605 98.5251 115.715 98.5251 116.662V119.331C98.5251 120.278 99.1122 120.719 99.8315 120.311Z" fill="#A8A8A8"/>
<path d="M107.05 111.502C107.05 111.502 106.306 110.898 105.942 110.931C105.578 110.964 106.397 112.082 106.397 112.082L107.05 111.502Z" fill="#A8A8A8"/>
<path d="M100.071 120.865C100.071 120.865 99.1039 120.718 98.8476 120.261C98.5913 119.804 98.7732 119.306 98.7732 119.306C98.7732 119.306 100.104 119.918 100.071 120.865Z" fill="#A8A8A8"/>
<path d="M100.65 120.726L106.107 117.616C106.827 117.208 107.414 116.098 107.414 115.151V112.482C107.414 111.535 106.827 111.094 106.107 111.502L100.65 114.612C99.9307 115.021 99.3437 116.131 99.3437 117.078V119.747C99.3437 120.694 99.9307 121.134 100.65 120.726Z" fill="white"/>
<path d="M93.4236 130.211C93.4815 130.211 93.5394 130.203 93.589 130.17C93.8122 130.056 99.137 127.42 101.369 125.779C103.106 124.505 103.056 122.408 102.998 120.187C102.99 119.771 102.973 119.338 102.973 118.898C102.973 118.694 102.808 118.53 102.601 118.53C102.395 118.53 102.229 118.694 102.229 118.898C102.229 119.347 102.238 119.779 102.254 120.204C102.312 122.408 102.353 124.146 100.923 125.191C98.7401 126.791 93.3078 129.485 93.25 129.509C93.0681 129.599 92.9936 129.819 93.0846 129.999C93.159 130.138 93.283 130.211 93.4236 130.211Z" fill="white"/>
<path d="M32.8004 68.689L88.3469 100.156C90.6041 101.438 92.2826 103.511 93.0515 105.96L99.1783 124.905L108.819 137.647C109.687 138.962 110.15 140.488 110.15 142.055V149.23C110.15 150.079 109.902 150.936 109.737 151.157L31.4444 106.686V69.4645C31.4444 68.7788 32.1968 68.3462 32.8004 68.689Z" fill="#CCA70E"/>
<path d="M31.9983 68.6482L0.504364 86.5082C0.504364 86.5082 1.48829 87.0224 1.58751 87.0224C1.68673 87.0224 32.6846 68.9584 32.6846 68.9584L31.9983 68.6482Z" fill="#FFED43"/>
<path d="M77.9867 168.135L43.1606 114.939L108.612 138.758L109.737 151.157C109.497 151.54 109.109 151.867 108.431 152.365C108.431 152.365 88.2146 164.184 81.2774 167.776C79.6486 168.617 78.5489 168.282 77.9867 168.135Z" fill="#CCA70E"/>
<path d="M91.0506 102.368C91.0506 102.368 90.2899 101.323 88.3468 100.156C85.0643 102.017 56.9025 118 56.9025 118L59.6062 120.277L91.0506 102.368Z" fill="#FFF6B3"/>
<path d="M32.8004 68.689L1.35599 86.5326L56.9025 117.992L88.3468 100.156L32.8004 68.689Z" fill="#FFED43"/>
<path d="M108.827 137.647C108.827 137.647 109.431 138.7 109.596 139.133C109.894 139.909 110.084 140.986 110.084 140.986L78.4083 158.993L76.6637 154.618L108.827 137.647Z" fill="#FFF6B3"/>
<path d="M1.356 86.5326L56.9025 118C59.1597 119.281 60.8382 121.355 61.6072 123.803L67.734 142.749L77.3748 155.491C78.243 156.805 78.706 158.332 78.706 159.899V168.298C76.6555 167.841 74.7455 166.96 73.5301 166.29C57.4647 157.417 15.2137 133.24 3.21637 126.375C1.22371 125.232 0 125.575 0 123.297V87.2999C0 86.6143 0.752416 86.1898 1.356 86.5326Z" fill="#E5BF1F"/>
<path d="M93.0019 116.155C93.6386 118.139 97.2684 127.909 97.2684 127.909C97.2684 127.909 97.7975 127.689 98.583 127.346C98.4259 128.244 97.8802 129.052 97.0451 129.542L73.1745 143.345C71.3968 144.374 69.1148 143.516 68.4781 141.574L63.5585 126.538C71.2149 122.261 83.1048 115.608 85.9739 113.992C90.2982 111.551 92.3653 114.172 93.0019 116.155Z" fill="#232731"/>
<path d="M64.7078 121.844L88.6858 108.27C90.4635 107.266 92.729 108.131 93.3574 110.058L98.4838 125.828C98.6492 126.334 98.674 126.856 98.583 127.354C97.7975 127.689 97.2683 127.918 97.2683 127.918C97.2683 127.918 93.6386 118.139 93.0019 116.163C92.3652 114.18 90.2982 111.559 85.9738 114C83.0965 115.625 71.2066 122.269 63.5585 126.546L63.2443 125.591C62.773 124.155 63.3848 122.595 64.7078 121.844Z" fill="#464D5D"/>
<path d="M99.1783 124.906L108.827 137.647L77.474 155.614L67.7422 142.749L99.1783 124.906Z" fill="#FFED43"/>
<path d="M60.1354 125.681L65.5346 142.7L7.4828 109.502C6.34178 108.849 5.36612 107.935 4.63851 106.841L2.16628 103.111C1.63711 102.311 1.35599 101.372 1.35599 100.417V89.61L56.0756 120.685C58.0187 121.787 59.4656 123.567 60.1354 125.681Z" fill="#464D5D"/>
<path d="M103.651 146.896C103.651 146.896 104.379 151.81 100.741 153.842C96.4663 156.234 92.4231 158.846 89.8682 159.94C86.0731 161.572 84.1962 157.907 84.1962 157.907L103.651 146.896Z" fill="#464D5D"/>
<path d="M98.5417 127.175L100.237 129.321L92.0428 134.031L90.3891 131.909L98.5417 127.175Z" fill="#CCA70E"/>
<path d="M79.4502 138.023L81.1452 140.17L72.9513 144.888L71.2976 142.765L79.4502 138.023Z" fill="#CCA70E"/>
<path d="M85.9738 162.184C85.9738 162.184 83.4685 159.066 82.5094 159.156C81.5503 159.246 78.706 160.96 78.706 160.96V166.429L85.9738 162.184Z" fill="white"/>
<path d="M110.15 148.463L104.602 151.63C104.602 151.63 104.809 148.553 104.95 147.426C105.09 146.3 105.586 145.753 106.827 145.075C107.777 144.553 110.159 143.125 110.159 143.125V148.463H110.15Z" fill="white"/>
<path d="M93.7543 155.23C93.7543 156.267 94.391 156.748 95.1848 156.299C95.9702 155.85 96.6152 154.642 96.6152 153.606C96.6152 152.569 95.9785 152.087 95.1848 152.536C94.391 152.985 93.7543 154.193 93.7543 155.23Z" fill="white"/>
<path d="M69.677 164.233C69.3628 159.76 66.4854 155.173 63.0789 153.818C60.2594 152.699 57.9856 154.275 57.2167 157.246C58.7794 158.119 68.9081 163.58 69.677 164.233Z" fill="#C48B0C"/>
<path d="M59.2342 164.233C58.6554 162.935 58.2998 161.515 58.2668 160.119C58.1675 156.348 60.4248 154.226 63.3022 155.369C66.1795 156.511 68.5856 160.47 68.6931 164.233H59.2342Z" fill="#232731"/>
<path d="M61.1276 158.683C61.0615 156.095 62.9632 160.527 66.7005 162.478C68.321 163.319 69.9582 164.413 71.2728 165.147C70.909 166.462 70.1979 167.245 69.2223 167.653C69.0735 167.719 65.9315 169.082 65.9315 169.082L64.1538 167.898L66.1051 167.392C63.4097 166.037 61.2186 162.266 61.1276 158.683Z" fill="#232731"/>
<path d="M57.7872 160.119C57.8864 163.89 60.3008 167.874 63.1864 169.017C66.0638 170.159 68.321 168.037 68.2218 164.266C68.1226 160.495 65.7082 156.511 62.8226 155.369C59.9452 154.226 57.688 156.348 57.7872 160.119Z" fill="#464D5D"/>
<path d="M59.6641 160.862C59.7303 163.278 61.2764 165.825 63.1203 166.56C64.9641 167.294 66.411 165.931 66.3449 163.515C66.2787 161.099 64.7326 158.552 62.8887 157.817C61.0449 157.091 59.598 158.454 59.6641 160.862Z" fill="#232731"/>
<path d="M60.5157 161.205C60.5654 163.001 61.7146 164.894 63.0872 165.441C64.4597 165.988 65.5346 164.976 65.485 163.18C65.4354 161.384 64.2861 159.491 62.9135 158.944C61.5493 158.397 60.4744 159.409 60.5157 161.205Z" fill="white"/>
<path d="M22.3658 137.296C22.0516 132.823 19.1742 128.236 15.7677 126.881C12.9482 125.762 10.5338 127.289 9.76486 130.252C11.3276 131.125 21.5968 136.643 22.3658 137.296Z" fill="#C48B0C"/>
<path d="M11.9229 137.296C11.3441 135.998 10.9886 134.578 10.9555 133.182C10.8563 129.411 13.1135 127.289 15.9909 128.432C18.8683 129.574 21.2743 133.533 21.3818 137.296H11.9229Z" fill="#232731"/>
<path d="M13.8163 131.746C13.7502 129.158 15.6519 133.591 19.3892 135.541C21.0098 136.382 22.6469 137.476 23.9615 138.211C23.5977 139.525 22.8867 140.308 21.911 140.717C21.7622 140.782 18.6202 142.145 18.6202 142.145L16.8425 140.961L18.7939 140.455C16.1067 139.1 13.9156 135.329 13.8163 131.746Z" fill="#232731"/>
<path d="M10.4759 133.182C10.5751 136.954 12.9895 140.937 15.8751 142.08C18.7525 143.222 21.0098 141.1 20.9105 137.329C20.8113 133.558 18.397 129.574 15.5113 128.432C12.634 127.289 10.3767 129.411 10.4759 133.182Z" fill="#464D5D"/>
<path d="M12.3528 133.925C12.419 136.341 13.9651 138.888 15.809 139.623C17.6528 140.357 19.0998 138.994 19.0336 136.578C18.9675 134.162 17.4213 131.615 15.5775 130.88C13.7336 130.154 12.2949 131.517 12.3528 133.925Z" fill="#232731"/>
<path d="M13.2127 134.268C13.2624 136.064 14.4116 137.958 15.7842 138.504C17.1567 139.051 18.2316 138.039 18.182 136.243C18.1324 134.448 16.9831 132.554 15.6105 132.007C14.238 131.46 13.1631 132.472 13.2127 134.268Z" fill="white"/>
<path d="M78.706 167.768L110.15 149.761C110.15 149.761 111.482 149.442 111.49 152.381C111.498 155.23 110.58 155.393 109.737 155.875C104.073 159.115 81.2774 172.192 80.0041 172.812C79.508 173.057 78.9375 173.098 77.9701 172.722C77.9701 171.637 77.9701 170.004 77.9701 169.319C77.9701 168.266 78.706 167.768 78.706 167.768Z" fill="#C48B0C"/>
<path d="M70.4377 168.51C69.2305 167.637 69.4951 162.78 69.4951 162.78L78.7143 167.76C78.7143 167.76 77.9701 168.257 77.9701 169.319C77.9701 169.996 77.9701 171.629 77.9701 172.722C77.6973 172.616 77.3996 172.486 77.0523 172.306C75.5888 171.555 70.8924 168.837 70.4377 168.51Z" fill="#CCA70E"/>
<path d="M103.445 155.042V158.34L87.1893 167.711V164.299L103.445 155.042Z" fill="#E2E2E2"/>
<path d="M56.9769 145.402L62.434 142.292C63.1533 141.884 63.7404 140.774 63.7404 139.827V137.158C63.7404 136.211 63.1533 135.77 62.434 136.178L56.9769 139.288C56.2575 139.696 55.6705 140.806 55.6705 141.753V144.422C55.6622 145.369 56.2575 145.81 56.9769 145.402Z" fill="#A8A8A8"/>
<path d="M64.1951 136.604C64.1951 136.604 63.451 136 63.0872 136.032C62.7234 136.065 63.5419 137.183 63.5419 137.183L64.1951 136.604Z" fill="#A8A8A8"/>
<path d="M57.2084 145.965C57.2084 145.965 56.241 145.818 55.9847 145.361C55.7284 144.904 55.9103 144.406 55.9103 144.406C55.9103 144.406 57.2415 145.01 57.2084 145.965Z" fill="#A8A8A8"/>
<path d="M57.7954 145.818L63.2525 142.708C63.9719 142.3 64.5589 141.19 64.5589 140.243V137.574C64.5589 136.627 63.9719 136.186 63.2525 136.594L57.7954 139.704C57.0761 140.113 56.489 141.223 56.489 142.17V144.839C56.489 145.786 57.0761 146.226 57.7954 145.818Z" fill="white"/>
<path d="M62.2107 147.737C62.7812 147.737 63.3848 147.443 63.9388 147.132L67.6761 145.002C67.9407 144.855 68.0316 144.52 67.8745 144.259C67.7257 143.998 67.3867 143.908 67.1221 144.063L63.3848 146.202C62.5249 146.692 62.1942 146.708 62.0619 146.626C61.8221 146.488 61.4418 145.769 61.541 142.537C61.5493 142.235 61.3095 141.99 61.0118 141.982C61.0036 141.982 61.0036 141.982 60.9953 141.982C60.6976 141.982 60.4579 142.21 60.4496 142.504C60.3504 145.639 60.648 147.051 61.4997 147.557C61.7229 147.679 61.9627 147.737 62.2107 147.737Z" fill="white"/>
<path d="M57.5226 156.038C57.5226 156.038 56.9604 158.054 56.9025 158.797C56.8529 159.466 56.208 160.201 55.1083 159.809C54.9925 159.768 54.8685 159.711 54.7362 159.646C52.3218 158.34 26.2105 143.296 24.3006 142.235C22.1839 141.059 22.4898 137.476 22.1839 135.876C31.3534 141.1 57.5226 156.038 57.5226 156.038Z" fill="#CCA70E"/>
<path d="M10.1778 129.126C10.1778 129.126 9.61556 131.142 9.55768 131.885C9.50807 132.554 8.86314 133.289 7.76346 132.897C7.6477 132.856 7.52367 132.799 7.39138 132.733C4.97704 131.427 3.88562 130.611 1.96737 129.55C-0.149314 128.375 -0.000484402 124.84 -0.000484402 123.314C9.16907 128.522 10.1778 129.126 10.1778 129.126Z" fill="#CCA70E"/>
<path d="M47.4187 113.592H46.319V137.615H47.4187V113.592Z" fill="#E5BF1F"/>
<path d="M29.4765 102.932H28.3768V126.954H29.4765V102.932Z" fill="#E5BF1F"/>
<path d="M13.7585 94.3851H12.6588V115.796H13.7585V94.3851Z" fill="#E5BF1F"/>
<path d="M72.4055 158.356C72.4055 158.356 70.57 156.038 69.768 155.573C56.2245 147.753 20.3979 127.036 8.12772 119.943C5.49013 118.416 3.38171 118.457 3.38171 118.457L72.4055 158.356Z" fill="#C48B0C"/>
<path d="M52.3632 106.278L40.6305 99.6338L52.1565 93.3403L52.3632 106.278Z" fill="#232731"/>
<path d="M70.1648 96.0585L52.3632 106.278L43.1606 93.0465L60.9622 82.835L70.1648 96.0585Z" fill="#464D5D"/>
<path d="M58.5396 90.4426C61.2268 90.2956 64.4515 93.8219 66.4772 96.4503C66.3863 96.5319 66.2953 96.6054 66.1878 96.6625L54.4634 103.397C53.7192 103.821 52.7684 103.609 52.2805 102.915L46.6415 94.8014C50.8584 92.8261 56.1666 90.5732 58.5396 90.4426Z" fill="#084388"/>
<path d="M58.5396 90.4426C56.1666 90.5732 50.8584 92.8261 46.6415 94.7933L46.6167 94.7607C46.0793 93.9852 46.3191 92.9159 47.1459 92.4425L58.8703 85.7164C59.6145 85.2919 60.5653 85.5042 61.0532 86.198L66.717 94.3444C67.1883 95.0219 67.0642 95.9198 66.4772 96.4503C64.4515 93.8219 61.2268 90.2957 58.5396 90.4426Z" fill="#6B8EB8"/>
</g>
<defs>
<clipPath id="clip0_26_350">
<rect width="160" height="173" fill="white"/>
</clipPath>
</defs>
</svg>
