<svg width="160" height="173" viewBox="0 0 160 173" fill="none" xmlns="http://www.w3.org/2000/svg">
<g clip-path="url(#clip0_26_27)">
<path opacity="0.2" d="M0 118.561L93.9971 173L160 134.795L66.3061 80.4136L0 118.561Z" fill="#464D5D"/>
<path d="M14.497 33.449V112.716L103.053 163.848V84.2283L14.497 33.449Z" fill="#B0B5C1"/>
<path d="M3.60582 92.4636V94.6657L92.1532 145.781V143.775L3.60582 92.4636Z" fill="#9198A9"/>
<path d="M3.60582 92.4637L92.1532 143.775L103.053 137.586L14.497 86.1766L3.60582 92.4637Z" fill="white"/>
<path d="M18.6437 88.5834L99.6353 135.605V82.763L18.6437 35.7576V88.5834Z" fill="#FEB232"/>
<path d="M26.5929 73.3576L48.949 86.2673V69.4855L26.5929 56.584V73.3576Z" fill="#464D5D"/>
<path d="M28.5515 64.655L47.4821 75.5836V74.8469L28.5515 63.9182V64.655Z" fill="white"/>
<path d="M28.5515 66.4805L47.4821 77.401V76.6724L28.5515 65.7438V66.4805Z" fill="white"/>
<path d="M28.5515 68.4207L47.4821 79.3494V78.6126L28.5515 67.6921V68.4207Z" fill="white"/>
<path d="M28.5515 70.369L47.4821 81.2894V80.5609L28.5515 69.6322V70.369Z" fill="white"/>
<path d="M28.5515 72.3091L47.4821 83.2378V82.501L28.5515 71.5806V72.3091Z" fill="white"/>
<path d="M48.949 86.2667L49.8668 85.7591V69.0674L48.949 69.5749V86.2667Z" fill="#232731"/>
<path d="M26.5929 56.6079L48.949 69.575L49.8668 69.0674L27.4206 56.0513L26.5929 56.6079Z" fill="#6F5F6A"/>
<path d="M28.4286 58.9819V60.3163L28.7236 60.4882C29.0186 60.6601 29.2153 60.5537 29.2153 60.0953C29.2153 59.6368 29.0186 59.3258 28.7154 59.1457L28.4286 58.9819ZM28.699 60.2262L28.6581 60.2017V59.3585L28.699 59.3831C28.8711 59.4813 28.9859 59.645 28.9859 59.9643C28.9859 60.2835 28.8629 60.3245 28.699 60.2262Z" fill="white"/>
<path d="M29.6333 60.4478L29.9693 60.6443V60.3905L29.6333 60.1941V59.9321L30.0348 60.1613V59.9076L29.4038 59.5474V60.8817L30.0512 61.2501V60.9963L29.6333 60.7589V60.4478Z" fill="white"/>
<path d="M30.6085 60.2426L30.2397 60.0298V61.3641L30.4692 61.4951V61.0449L30.6085 61.1267C30.8216 61.2495 31.0019 61.2168 31.0019 60.8975C31.0019 60.5701 30.8298 60.3654 30.6085 60.2426ZM30.6003 60.873L30.4774 60.7993V60.3982L30.6003 60.4718C30.7232 60.5373 30.7888 60.6274 30.7888 60.7666C30.7806 60.9057 30.7232 60.9466 30.6003 60.873Z" fill="white"/>
<path d="M31.2887 60.6273L30.9691 61.7816L31.1985 61.9126L31.2641 61.6342L31.5755 61.8143L31.6411 62.1663L31.8787 62.3055L31.5673 60.791L31.2887 60.6273ZM31.3133 61.4214L31.3378 61.315C31.3624 61.2004 31.3952 61.0612 31.4198 60.9302H31.428C31.4526 61.0858 31.4854 61.2577 31.5099 61.405L31.5345 61.5442L31.3133 61.4214Z" fill="white"/>
<path d="M32.731 61.8798C32.731 61.5605 32.5589 61.3641 32.3458 61.2413L31.9853 61.0284V62.3628L32.2147 62.4938V62.0108L32.3376 62.0845L32.5261 62.6739L32.7802 62.8212L32.5507 62.1581C32.6573 62.1581 32.731 62.0763 32.731 61.8798ZM32.3213 61.8389L32.2065 61.7734V61.3968L32.3213 61.4623C32.436 61.5278 32.5015 61.6097 32.5015 61.7406C32.5097 61.8798 32.4442 61.9126 32.3213 61.8389Z" fill="white"/>
<path d="M32.813 61.7652L33.0916 61.9208V63.0014L33.321 63.1324V62.0518L33.5915 62.2155V61.9617L32.813 61.5115V61.7652Z" fill="white"/>
<path d="M34.3208 63.1323C34.3208 63.3943 34.2553 63.4434 34.1405 63.3779C34.0258 63.3124 33.9684 63.1896 33.9684 62.9277V62.1827L33.739 62.0518V62.764C33.739 63.2142 33.8783 63.4843 34.1405 63.6399C34.4028 63.7872 34.5339 63.6726 34.5339 63.2224V62.5102L34.3126 62.3874V63.1323H34.3208Z" fill="white"/>
<path d="M35.5173 63.4844C35.5173 63.1652 35.3452 62.9687 35.1321 62.8459L34.7716 62.6412V63.9756L35.001 64.1066V63.6236L35.1239 63.6973L35.3124 64.2867L35.5665 64.434L35.337 63.7709C35.4517 63.7628 35.5173 63.6809 35.5173 63.4844ZM35.1158 63.4517L35.001 63.3862V63.0096L35.1158 63.0751C35.2305 63.1406 35.296 63.2225 35.296 63.3534C35.296 63.4926 35.2305 63.5172 35.1158 63.4517Z" fill="white"/>
<path d="M35.9435 64.0902L36.2877 64.2866V64.0329L35.9435 63.8364V63.5745L36.345 63.8037V63.5499L35.7222 63.1897V64.5159L36.3614 64.8924V64.6387L35.9435 64.4013V64.0902Z" fill="white"/>
<path d="M36.9187 64.3931C36.8285 64.2948 36.763 64.2293 36.763 64.1475C36.763 64.0738 36.8121 64.0574 36.8941 64.0984C36.976 64.1475 37.0416 64.2212 37.1072 64.3276L37.2219 64.2048C37.1399 64.0411 37.017 63.9101 36.9023 63.8446C36.6974 63.7218 36.5499 63.8118 36.5499 64.0329C36.5499 64.2293 36.6482 64.4013 36.7548 64.5159L36.8859 64.6632C36.976 64.7614 37.0334 64.8188 37.0334 64.9088C37.0334 64.9907 36.9842 65.0152 36.8941 64.9579C36.8121 64.9088 36.722 64.8024 36.6482 64.6796L36.5171 64.8106C36.6237 64.9988 36.7548 65.138 36.8859 65.2199C37.1235 65.359 37.2629 65.2444 37.2629 65.0234C37.2629 64.8351 37.1891 64.6796 37.0662 64.5486L36.9187 64.3931Z" fill="white"/>
<path d="M44.5892 68.1997L44.4253 68.1015C44.3598 68.1178 44.286 68.1178 44.1795 68.0769V68.2652L44.3598 68.3716V69.1247L44.1467 69.0019V69.2475L44.7695 69.6077V69.3621L44.5892 69.2557V68.1997Z" fill="white"/>
<path d="M45.5153 68.7323L45.2366 68.5686L44.876 69.1416V69.3463L45.3022 69.5919V69.903L45.5153 70.0258V69.7147L45.63 69.7802V69.551L45.5153 69.4855V68.7323ZM45.3104 69.158V69.3709L45.1055 69.2481L45.2366 69.0434C45.2612 68.9861 45.294 68.9288 45.3186 68.8715L45.3268 68.8797C45.3104 68.9534 45.3104 69.0762 45.3104 69.158Z" fill="white"/>
<path d="M45.7611 70.009C45.7611 70.1155 45.8185 70.2302 45.9004 70.2794C45.9742 70.3286 46.0397 70.2794 46.0397 70.1729C46.0397 70.0663 45.9824 69.9516 45.9004 69.9024C45.8185 69.8533 45.7611 69.9024 45.7611 70.009Z" fill="white"/>
<path d="M45.7611 69.3459C45.7611 69.4524 45.8185 69.5672 45.9004 69.6163C45.9742 69.6573 46.0397 69.6163 46.0397 69.5098C46.0397 69.4033 45.9824 69.2885 45.9004 69.2394C45.8185 69.1902 45.7611 69.2393 45.7611 69.3459Z" fill="white"/>
<path d="M46.1872 69.7633C46.1872 70.2054 46.3266 70.5246 46.5396 70.6392C46.7445 70.762 46.8838 70.6065 46.8838 70.1644C46.8838 69.7224 46.7445 69.4195 46.5396 69.2967C46.3266 69.1739 46.1872 69.3213 46.1872 69.7633ZM46.5396 70.41C46.4659 70.3691 46.4003 70.2381 46.4003 69.8861C46.4003 69.5341 46.4577 69.485 46.5396 69.5259C46.6134 69.5668 46.6708 69.6815 46.6708 70.0416C46.6708 70.3937 46.6134 70.4591 46.5396 70.41Z" fill="white"/>
<path d="M46.9986 70.2299C46.9986 70.6719 47.1379 70.9912 47.3509 71.1058C47.5558 71.2286 47.7033 71.073 47.7033 70.631C47.7033 70.1889 47.564 69.886 47.3509 69.7632C47.1379 69.6486 46.9986 69.7878 46.9986 70.2299ZM47.3509 70.8766C47.2772 70.8356 47.2116 70.7047 47.2116 70.3527C47.2116 69.9925 47.269 69.9515 47.3509 69.9925C47.4247 70.0334 47.4903 70.148 47.4903 70.5082C47.4821 70.8684 47.4247 70.9257 47.3509 70.8766Z" fill="white"/>
<path d="M28.4778 61.7734V62.8622L28.7236 63.0014C28.9613 63.1405 29.1252 63.0587 29.1252 62.6821C29.1252 62.3055 28.9613 62.0518 28.7154 61.9044L28.4778 61.7734ZM28.699 62.7967L28.6663 62.7804V62.0845L28.699 62.1009C28.8383 62.1828 28.9367 62.3137 28.9367 62.5757C28.9285 62.8377 28.8383 62.8704 28.699 62.7967Z" fill="white"/>
<path d="M29.4612 62.9773L29.7398 63.1328V62.9281L29.4612 62.7644V62.5516L29.789 62.7398V62.527L29.2727 62.2323V63.3211L29.7972 63.6322V63.4193L29.4612 63.2228V62.9773Z" fill="white"/>
<path d="M30.2561 63.2142C30.1823 63.1324 30.1332 63.0832 30.1332 63.0096C30.1332 62.9441 30.1741 62.9359 30.2397 62.9686C30.3053 63.0096 30.3544 63.0669 30.4118 63.1569L30.5019 63.0587C30.4282 62.9277 30.3298 62.8131 30.2397 62.764C30.0676 62.6657 29.9447 62.7394 29.9447 62.9195C29.9447 63.0751 30.0266 63.2224 30.1086 63.3125L30.2151 63.4353C30.2889 63.5171 30.3298 63.5662 30.3298 63.6317C30.3298 63.6972 30.2889 63.7136 30.2151 63.6727C30.1496 63.6317 30.0758 63.5417 30.0184 63.4434L29.9119 63.5499C29.9938 63.7054 30.1086 63.82 30.2151 63.8855C30.4118 64.0001 30.5265 63.9019 30.5265 63.7218C30.5265 63.5662 30.461 63.4434 30.3626 63.3288L30.2561 63.2142Z" fill="white"/>
<path d="M30.5593 63.1815L30.7888 63.3124V64.1966L30.9773 64.303V63.4189L31.1985 63.5498V63.3452L30.5593 62.9768V63.1815Z" fill="white"/>
<path d="M31.3296 64.5076L31.5099 64.614V63.5252L31.3296 63.4188V64.5076Z" fill="white"/>
<path d="M32.1737 64.2866C32.1737 64.4176 32.1901 64.5813 32.1983 64.6959H32.1901L32.1082 64.4094L31.8951 63.7463L31.7066 63.6399V64.7287L31.8869 64.8351V64.4503C31.8869 64.3194 31.8705 64.1638 31.8623 64.041H31.8705L31.9525 64.3275L32.1655 64.9988L32.354 65.1052V64.0165L32.1819 63.9182V64.2866H32.1737Z" fill="white"/>
<path d="M32.69 64.2047L32.436 65.1461L32.6245 65.2525L32.6736 65.0233L32.9277 65.1707L32.9768 65.4572L33.1735 65.5718L32.9195 64.3275L32.69 64.2047ZM32.7146 64.8514L32.731 64.7614C32.7556 64.6631 32.772 64.5485 32.7966 64.4503H32.8047C32.8293 64.5813 32.8457 64.7204 32.8703 64.8432L32.8867 64.9578L32.7146 64.8514Z" fill="white"/>
<path d="M33.1407 64.6713L33.3702 64.8023V65.6864L33.5505 65.7929V64.9087L33.78 65.0397V64.8351L33.1407 64.4585V64.6713Z" fill="white"/>
<path d="M33.9029 65.9976L34.0914 66.104V65.0071L33.9029 64.9006V65.9976Z" fill="white"/>
<path d="M34.2389 65.6373C34.2389 65.9975 34.3946 66.2922 34.6077 66.4232C34.8289 66.5542 34.9846 66.4232 34.9846 66.063C34.9846 65.711 34.8371 65.4163 34.6077 65.2853C34.3946 65.1625 34.2389 65.2771 34.2389 65.6373ZM34.6158 66.2103C34.5093 66.1448 34.4356 65.9647 34.4356 65.7437C34.4356 65.5227 34.5093 65.4326 34.6158 65.4981C34.7306 65.5636 34.7961 65.7355 34.7961 65.9484C34.7961 66.1776 34.7224 66.2758 34.6158 66.2103Z" fill="white"/>
<path d="M35.6075 66.2677C35.6075 66.3987 35.6238 66.5624 35.632 66.677H35.6238L35.5419 66.3905L35.3288 65.7274L35.1403 65.621V66.7097L35.3206 66.8162V66.4314C35.3206 66.3004 35.3042 66.1449 35.296 66.0221L35.378 66.3086L35.5911 66.9799L35.7795 67.0863V65.9975L35.5993 65.8911V66.2677H35.6075Z" fill="white"/>
<path d="M39.4591 68.7891L39.5984 68.8709V69.0592C39.5739 69.0674 39.5411 69.0592 39.5083 69.0428C39.3526 68.9528 39.2788 68.7809 39.2788 68.5517C39.2788 68.3306 39.369 68.2488 39.4919 68.3224C39.5657 68.3634 39.5984 68.4207 39.6476 68.4944L39.746 68.4043C39.6886 68.2979 39.6066 68.1833 39.4919 68.1096C39.2706 67.9786 39.0822 68.085 39.0822 68.4534C39.0822 68.8218 39.2624 69.1165 39.4837 69.2393C39.5984 69.3048 39.6968 69.2966 39.7623 69.2639V68.7645L39.4591 68.5926V68.7891Z" fill="white"/>
<path d="M40.0737 68.4702L39.8115 69.4116L40 69.5181L40.0492 69.2888L40.3032 69.4362L40.3524 69.7227L40.5491 69.8373L40.2868 68.593L40.0737 68.4702ZM40.0901 69.1169L40.1065 69.0269C40.1311 68.9286 40.1557 68.814 40.1721 68.7158H40.1803C40.2049 68.8386 40.2213 68.986 40.2458 69.1087L40.2622 69.2234L40.0901 69.1169Z" fill="white"/>
<path d="M40.5163 68.9289L40.7457 69.0599V69.9522L40.9342 70.0586V69.1745L41.1555 69.2973V69.0926L40.5163 68.7242V68.9289Z" fill="white"/>
<path d="M41.4669 69.9024L41.7455 70.0661V69.8615L41.4669 69.6978V69.4767L41.7947 69.6732V69.4604L41.2784 69.1656V70.2544L41.8111 70.5573V70.3527L41.4669 70.1562V69.9024Z" fill="white"/>
<path d="M44.5728 71.2613L44.8023 71.3923V72.2764L44.9826 72.3828V71.4987L45.212 71.6297V71.425L44.5728 71.0566V71.2613Z" fill="white"/>
<path d="M45.335 72.5879L45.5234 72.6943V71.6056L45.335 71.4991V72.5879Z" fill="white"/>
<path d="M46.1463 72.4572L46.0971 72.621H46.0889L46.0397 72.3999L45.9004 71.8269L45.7038 71.7123V72.8011L45.8758 72.8993V72.4982C45.8758 72.3917 45.8595 72.2198 45.8513 72.1134H45.8595L45.925 72.4081L46.0479 72.9075L46.1217 72.9484L46.2528 72.5964L46.3184 72.3836H46.3266C46.3184 72.4818 46.302 72.6373 46.302 72.7437V73.1449L46.4741 73.2431V72.1543L46.2856 72.0397L46.1463 72.4572Z" fill="white"/>
<path d="M46.8511 73.005L47.1297 73.1687V72.964L46.8511 72.8003V72.5793L47.1789 72.7676V72.5629L46.6708 72.26V73.357L47.1952 73.6599V73.4552L46.8511 73.2587V73.005Z" fill="white"/>
<path d="M68.486 96.0335L90.8502 108.943V92.1696L68.486 79.2599V96.0335Z" fill="#464D5D"/>
<path d="M70.4528 87.3309L89.3751 98.2595V97.5227L70.4528 86.6023V87.3309Z" fill="white"/>
<path d="M70.4528 89.1564L89.3751 100.085V99.3483L70.4528 88.4197V89.1564Z" fill="white"/>
<path d="M70.4528 91.1048L89.3751 102.025V101.289L70.4528 90.368V91.1048Z" fill="white"/>
<path d="M70.4528 93.0449L89.3751 103.974V103.237L70.4528 92.3081V93.0449Z" fill="white"/>
<path d="M70.4528 94.9932L89.3751 105.914V105.177L70.4528 94.2565V94.9932Z" fill="white"/>
<path d="M90.8502 108.943L91.7681 108.435V91.7433L90.8502 92.2508V108.943Z" fill="#232731"/>
<path d="M68.486 79.2838L90.8502 92.2509L91.7681 91.7433L69.3219 78.7272L68.486 79.2838Z" fill="#646D84"/>
<path d="M70.3298 81.6578V82.9922L70.6249 83.1641C70.9199 83.336 71.1166 83.2296 71.1166 82.7712C71.1166 82.3127 70.9199 82.0017 70.6085 81.8216L70.3298 81.6578ZM70.6003 82.9021L70.5593 82.8776V82.0344L70.6003 82.059C70.7642 82.1572 70.8871 82.3209 70.8871 82.6402C70.8789 82.9595 70.7642 83.0004 70.6003 82.9021Z" fill="white"/>
<path d="M71.5263 83.1238L71.8705 83.3202V83.0746L71.5263 82.8782V82.608L71.9361 82.8372V82.5835L71.3051 82.2233V83.5576L71.9525 83.926V83.6722L71.5263 83.4348V83.1238Z" fill="white"/>
<path d="M72.5097 82.9185L72.141 82.7057V84.0401L72.3704 84.171V83.7208L72.5097 83.8026C72.7228 83.9254 72.9031 83.8927 72.9031 83.5734C72.9031 83.2542 72.731 83.0413 72.5097 82.9185ZM72.4933 83.5489L72.3704 83.4752V83.0741L72.4933 83.1477C72.6163 83.2132 72.6736 83.3033 72.6736 83.4425C72.6818 83.5816 72.6245 83.6225 72.4933 83.5489Z" fill="white"/>
<path d="M73.1899 83.3114L72.8703 84.4657L73.0998 84.5966L73.1571 84.3183L73.4685 84.4984L73.5341 84.8504L73.7718 84.9896L73.4603 83.4751L73.1899 83.3114ZM73.2145 84.1055L73.2391 83.999C73.2637 83.8844 73.2964 83.7453 73.321 83.6143L73.3292 83.6225C73.3538 83.778 73.3866 83.9499 73.4112 84.0973L73.4358 84.2365L73.2145 84.1055Z" fill="white"/>
<path d="M74.6322 84.5558C74.6322 84.2366 74.4601 84.0401 74.2471 83.9173L73.8865 83.7126V85.047L74.116 85.178V84.695L74.2389 84.7687L74.4274 85.3581L74.6814 85.5054L74.452 84.8423C74.5585 84.8342 74.6322 84.7523 74.6322 84.5558ZM74.2225 84.5149L74.1078 84.4494V84.0728L74.2225 84.1383C74.3372 84.2038 74.4028 84.2857 74.4028 84.4167C74.4028 84.5558 74.3372 84.5886 74.2225 84.5149Z" fill="white"/>
<path d="M74.7142 84.4412L74.9928 84.6049V85.6855L75.2223 85.8164V84.7359L75.4927 84.8914V84.6376L74.7142 84.1874V84.4412Z" fill="white"/>
<path d="M76.2221 85.8082C76.2221 86.0702 76.1565 86.1193 76.0418 86.0538C75.9271 85.9883 75.8697 85.8655 75.8697 85.6036V84.8586L75.6402 84.7277V85.4399C75.6402 85.8901 75.7796 86.1602 76.0418 86.3158C76.304 86.4631 76.4352 86.3485 76.4352 85.9065V85.1943L76.2139 85.0715V85.8082H76.2221Z" fill="white"/>
<path d="M77.4186 86.1685C77.4186 85.8492 77.2465 85.6528 77.0334 85.53L76.6728 85.3171V86.6515L76.9023 86.7825V86.2995L77.0252 86.3732L77.2219 86.9626L77.4759 87.1099L77.2547 86.4468C77.3448 86.4468 77.4186 86.3568 77.4186 86.1685ZM77.017 86.1276L76.9023 86.0621V85.6855L77.017 85.751C77.1317 85.8165 77.1973 85.8984 77.1973 86.0293C77.1973 86.1685 77.1317 86.2012 77.017 86.1276Z" fill="white"/>
<path d="M77.8447 86.7661L78.1889 86.9626V86.717L77.8447 86.5205V86.2504L78.2463 86.4796V86.2258L77.6234 85.8656V87.2L78.2626 87.5683V87.3146L77.8447 87.0772V86.7661Z" fill="white"/>
<path d="M78.8199 87.069C78.7298 86.9707 78.6642 86.9052 78.6642 86.8234C78.6642 86.7497 78.7134 86.7333 78.7953 86.7743C78.8773 86.8234 78.9346 86.8971 79.0002 87.0035L79.1149 86.8807C79.0248 86.717 78.9101 86.586 78.7953 86.5205C78.5905 86.3977 78.4347 86.4877 78.4347 86.7088C78.4347 86.9052 78.5331 87.0772 78.6396 87.1918L78.7707 87.3391C78.8609 87.4374 78.9183 87.4947 78.9183 87.5847C78.9183 87.6666 78.8691 87.6911 78.7789 87.6338C78.697 87.5847 78.6068 87.4783 78.5331 87.3555L78.402 87.4865C78.5003 87.6748 78.6396 87.8221 78.7707 87.8958C79.0084 88.0349 79.1477 87.9203 79.1477 87.6993C79.1477 87.511 79.074 87.3555 78.951 87.2245L78.8199 87.069Z" fill="white"/>
<path d="M86.4823 90.8756L86.3184 90.7774C86.2528 90.7937 86.1791 90.7937 86.0725 90.7528V90.9411L86.2528 91.0475V91.8006L86.0397 91.6779V91.9234L86.6626 92.2836V92.038L86.4741 91.9316V90.8756H86.4823Z" fill="white"/>
<path d="M87.4165 91.4082L87.1379 91.2445L86.7773 91.8175V92.0222L87.2034 92.2678V92.5789L87.4165 92.7017V92.3906L87.5312 92.4561V92.2269L87.4165 92.1614V91.4082ZM87.2034 91.8421V92.0549L86.9986 91.9322L87.1297 91.7275C87.1543 91.6702 87.1871 91.6129 87.2116 91.5556H87.2198C87.2116 91.6293 87.2034 91.7521 87.2034 91.8421Z" fill="white"/>
<path d="M87.6624 92.6849C87.6624 92.7914 87.7197 92.9061 87.8017 92.9553C87.8754 92.9963 87.941 92.9553 87.941 92.8488C87.941 92.7422 87.8836 92.6275 87.8017 92.5783C87.7197 92.5292 87.6624 92.5783 87.6624 92.6849Z" fill="white"/>
<path d="M87.6624 92.0218C87.6624 92.1283 87.7197 92.2431 87.8017 92.2922C87.8754 92.3332 87.941 92.2922 87.941 92.1857C87.941 92.0792 87.8836 91.9644 87.8017 91.9153C87.7197 91.8661 87.6624 91.9153 87.6624 92.0218Z" fill="white"/>
<path d="M88.0885 92.4392C88.0885 92.8813 88.2278 93.2005 88.4327 93.3152C88.6458 93.4379 88.7851 93.2824 88.7851 92.8404C88.7851 92.3983 88.6458 92.0872 88.4327 91.9726C88.2278 91.8498 88.0885 91.9972 88.0885 92.4392ZM88.4327 93.0859C88.3589 93.045 88.3016 92.914 88.3016 92.562C88.3016 92.21 88.3589 92.1609 88.4327 92.2018C88.5065 92.2428 88.572 92.3574 88.572 92.7176C88.572 93.0778 88.5147 93.1351 88.4327 93.0859Z" fill="white"/>
<path d="M88.8998 92.914C88.8998 93.356 89.0391 93.6753 89.2522 93.7899C89.4571 93.9127 89.6046 93.7571 89.6046 93.3151C89.6046 92.873 89.4653 92.5701 89.2522 92.4473C89.0391 92.3245 88.8998 92.4719 88.8998 92.914ZM89.244 93.5607C89.1703 93.5197 89.1047 93.3888 89.1047 93.0367C89.1047 92.6766 89.1621 92.6356 89.244 92.6766C89.3178 92.7175 89.3751 92.8321 89.3751 93.1923C89.3833 93.5443 89.326 93.6016 89.244 93.5607Z" fill="white"/>
<path d="M70.379 84.4493V85.5381L70.6249 85.6773C70.8625 85.8164 71.0264 85.7346 71.0264 85.358C71.0264 84.9814 70.8625 84.7277 70.6167 84.5803L70.379 84.4493ZM70.6003 85.4726L70.5675 85.4481V84.7522L70.6003 84.7768C70.7396 84.8586 70.8298 84.9896 70.8298 85.2516C70.8298 85.5135 70.7396 85.5545 70.6003 85.4726Z" fill="white"/>
<path d="M71.3624 85.6531L71.6411 85.8169V85.604L71.3624 85.4485V85.2275L71.6902 85.4157V85.2111L71.174 84.9082V86.0052L71.6984 86.3081V86.1034L71.3624 85.9069V85.6531Z" fill="white"/>
<path d="M72.1492 85.8983C72.0754 85.8165 72.0262 85.7673 72.0262 85.6937C72.0262 85.6282 72.0672 85.62 72.1328 85.6527C72.1983 85.6937 72.2475 85.751 72.3049 85.841L72.395 85.7428C72.3212 85.6118 72.2229 85.4972 72.1328 85.4481C71.9607 85.3498 71.8377 85.4235 71.8377 85.6036C71.8377 85.7591 71.9197 85.9065 72.0016 85.9966L72.1082 86.1193C72.1819 86.2012 72.2229 86.2503 72.2229 86.3158C72.2229 86.3813 72.1819 86.3977 72.1082 86.3567C72.0426 86.3158 71.9607 86.2258 71.9115 86.1275L71.805 86.2339C71.8869 86.3895 72.0016 86.5041 72.1082 86.5696C72.3049 86.6842 72.4196 86.5942 72.4196 86.4059C72.4196 86.2503 72.354 86.1275 72.2557 86.0129L72.1492 85.8983Z" fill="white"/>
<path d="M72.4606 85.8656L72.69 85.9965V86.8807L72.8785 86.9871V86.103L73.0998 86.2339V86.0211L72.4606 85.6527V85.8656Z" fill="white"/>
<path d="M73.2309 87.1835L73.4112 87.2981V86.2012L73.2309 86.0947V87.1835Z" fill="white"/>
<path d="M74.075 86.9707C74.075 87.1017 74.0914 87.2654 74.0996 87.38H74.0914L74.0094 87.0935L73.7964 86.4304L73.6079 86.324V87.4127L73.7882 87.511V87.1262C73.7882 86.9952 73.7718 86.8397 73.7636 86.7169H73.7718L73.8537 87.0034L74.0668 87.6747L74.2553 87.7811V86.6924L74.075 86.5941V86.9707Z" fill="white"/>
<path d="M74.5913 86.8806L74.329 87.822L74.5175 87.9285L74.5667 87.6992L74.8207 87.8466L74.8699 88.1331L75.0666 88.2477L74.8043 87.0034L74.5913 86.8806ZM74.6077 87.5355L74.6241 87.4455C74.6486 87.3472 74.6732 87.2326 74.6896 87.1262H74.6978C74.7224 87.2572 74.7388 87.3964 74.7634 87.5191L74.7798 87.6338L74.6077 87.5355Z" fill="white"/>
<path d="M75.042 87.3472L75.2633 87.4782V88.3623L75.4518 88.4688V87.5846L75.6812 87.7156V87.511L75.042 87.1426V87.3472Z" fill="white"/>
<path d="M75.8041 88.6735L75.9926 88.7799V87.6911L75.8041 87.5847V88.6735Z" fill="white"/>
<path d="M76.1401 88.3132C76.1401 88.6734 76.2958 88.9681 76.5089 89.0991C76.7302 89.2301 76.8777 89.0991 76.8777 88.7389C76.8777 88.3869 76.7302 88.0922 76.5089 87.9612C76.2958 87.8466 76.1401 87.9612 76.1401 88.3132ZM76.5171 88.8944C76.4024 88.8289 76.3368 88.6488 76.3368 88.4278C76.3368 88.2068 76.4106 88.1167 76.5171 88.1822C76.6318 88.2477 76.6974 88.4196 76.6974 88.6325C76.6974 88.8535 76.6237 88.9517 76.5171 88.8944Z" fill="white"/>
<path d="M77.5087 88.9518C77.5087 89.0827 77.5251 89.2465 77.5333 89.3611H77.5251L77.4432 89.0746L77.2301 88.4115L77.0416 88.3051V89.3938L77.2219 89.5002V89.1155C77.2219 88.9845 77.2055 88.829 77.1973 88.7062H77.2055L77.2874 88.9927L77.5005 89.664L77.689 89.7704V88.6816L77.5169 88.5752V88.9518H77.5087Z" fill="white"/>
<path d="M81.3604 91.4732L81.4997 91.555V91.7433C81.4833 91.7515 81.4423 91.7433 81.4095 91.7269C81.2538 91.6369 81.1801 91.465 81.1801 91.2358C81.1801 91.0147 81.2702 90.9329 81.3932 91.0066C81.4669 91.0475 81.4997 91.1048 81.5489 91.1785L81.6472 91.0884C81.5898 90.982 81.5079 90.8674 81.3932 90.8019C81.1719 90.6709 80.9916 90.7774 80.9916 91.1375C80.9916 91.5059 81.1719 91.8006 81.3932 91.9316C81.5079 91.9971 81.6062 91.9889 81.6718 91.9562V91.4568L81.3686 91.2849V91.4732H81.3604Z" fill="white"/>
<path d="M81.975 91.1461L81.7128 92.0875L81.9013 92.194L81.9504 91.9647L82.2045 92.1121L82.2536 92.3986L82.4503 92.5132L82.1881 91.2689L81.975 91.1461ZM81.9914 91.7928L82.016 91.7028C82.0406 91.6046 82.0652 91.4899 82.0815 91.3917H82.0897C82.1143 91.5145 82.1307 91.6619 82.1553 91.7847L82.1717 91.8993L81.9914 91.7928Z" fill="white"/>
<path d="M82.4175 91.613L82.647 91.744V92.6281L82.8355 92.7345V91.8504L83.0567 91.9814V91.7685L82.4175 91.4001V91.613Z" fill="white"/>
<path d="M83.3682 92.5865L83.6468 92.742V92.5374L83.3682 92.3737V92.1608L83.696 92.3491V92.1363L83.1797 91.8416V92.9385L83.7124 93.2414V93.0286L83.3682 92.8321V92.5865Z" fill="white"/>
<path d="M86.4741 93.9454L86.6953 94.0682V94.9605L86.8838 95.0669V94.1746L87.1051 94.3056V94.1009L86.4741 93.7325V93.9454Z" fill="white"/>
<path d="M87.2362 95.2638L87.4165 95.3702V94.2815L87.2362 94.175V95.2638Z" fill="white"/>
<path d="M88.0475 95.1331L87.9984 95.2969H87.9902L87.941 95.0758L87.8017 94.5028L87.605 94.3882V95.4769L87.7771 95.5752V95.1741C87.7771 95.0676 87.7607 94.8957 87.7525 94.7893H87.7607L87.8263 95.0758L87.9492 95.5752L88.0229 95.6161L88.1541 95.2641L88.2196 95.0513H88.2278C88.2196 95.1495 88.2032 95.2969 88.2032 95.4115V95.8126L88.3753 95.9108V94.8221L88.1786 94.7074L88.0475 95.1331Z" fill="white"/>
<path d="M88.7523 95.6809L89.0309 95.8446V95.6399L88.7523 95.4762V95.2552L89.0801 95.4434V95.2388L88.5638 94.9441V96.0329L89.0965 96.3358V96.1311L88.7523 95.9346V95.6809Z" fill="white"/>
<path opacity="0.5" d="M18.6437 72.4155L38.9019 60.7256L18.6437 48.8146V72.4155Z" fill="white"/>
<path opacity="0.5" d="M18.6437 76.607V82.2473L47.4001 65.7274L41.934 62.5103L18.6437 76.607Z" fill="white"/>
<path opacity="0.5" d="M18.6437 84.6786V87.9285L52.2844 68.6008L49.4243 66.9226L18.6437 84.6786Z" fill="white"/>
<path opacity="0.5" d="M57.2096 94.7067L77.4677 83.0167L57.2096 71.0975V94.7067Z" fill="white"/>
<path opacity="0.5" d="M57.2096 98.8899V104.53L85.966 88.0104L80.4999 84.7932L57.2096 98.8899Z" fill="white"/>
<path opacity="0.5" d="M57.2096 106.962V110.22L90.8502 90.8837L87.9902 89.2056L57.2096 106.962Z" fill="white"/>
<path d="M55.1608 109.778L57.2096 110.973V57.9341L55.1608 56.9026V109.778Z" fill="#B5ACB4"/>
<path d="M103.053 163.848L151.772 135.736V56.0513L103.053 83.4588V163.848Z" fill="#9198A9"/>
<path d="M0.0983429 41.9873L87.9492 92.9712L151.772 56.0512L63.7902 5.32104L0.0983429 41.9873Z" fill="#F98A70"/>
<path d="M0.0983429 36.6662L87.9492 87.6502L151.772 50.7302L63.7902 0L0.0983429 36.6662Z" fill="#FEB232"/>
<path d="M92.1532 143.775V145.781L103.053 139.551V137.586L92.1532 143.775Z" fill="#646D84"/>
<path d="M87.9492 92.9712L151.772 56.0512V50.7302L87.9492 87.6501V92.9712Z" fill="#FFA000"/>
<path d="M0.0983429 41.9873L87.9492 92.9712V87.6502L0.0983429 36.6662V41.9873Z" fill="#FFA000"/>
<path d="M45.9742 101.583L53.4563 105.93V94.9359L45.9742 90.589V101.583Z" fill="white"/>
<path d="M89.3751 125.97L96.8654 130.309V119.315L89.3751 114.976V125.97Z" fill="white"/>
<path d="M26.9863 93.4542L43.4829 102.999V97.7438L26.9863 88.1986V93.4542Z" fill="#FFA000"/>
<path d="M33.4358 86.4549C33.2391 86.3731 33.0834 86.5204 33.0834 86.7906C33.0916 87.0525 33.2555 87.3309 33.4603 87.4128C33.657 87.4946 33.8127 87.3473 33.8127 87.0771C33.7963 86.8151 33.6324 86.5368 33.4358 86.4549Z" fill="#FFA000"/>
<path d="M34.5995 85.4563C34.4028 85.3744 34.2471 85.5218 34.2471 85.7919C34.2553 86.0539 34.4192 86.3322 34.624 86.4141C34.8207 86.4959 34.9764 86.3486 34.9764 86.0785C34.9682 85.8165 34.8043 85.5382 34.5995 85.4563Z" fill="#FFA000"/>
<path d="M34.5995 89.1401C34.4028 89.0583 34.2471 89.2056 34.2471 89.4758C34.2553 89.7377 34.4192 90.016 34.624 90.0979C34.8207 90.1798 34.9764 90.0324 34.9764 89.7623C34.9682 89.5003 34.8043 89.222 34.5995 89.1401Z" fill="#FFA000"/>
<path d="M37.4677 88.739C37.271 88.6571 37.1153 88.8045 37.1153 89.0746C37.1235 89.3366 37.2874 89.6149 37.4923 89.6968C37.689 89.7787 37.8447 89.6313 37.8447 89.3612C37.8365 89.0992 37.6726 88.8127 37.4677 88.739Z" fill="#FFA000"/>
<path d="M36.2057 86.0873C36.009 86.0054 35.8533 86.1528 35.8533 86.4229C35.8615 86.6849 36.0254 86.9632 36.2303 87.0451C36.427 87.1269 36.5827 86.9796 36.5827 86.7094C36.5745 86.4475 36.4024 86.1691 36.2057 86.0873Z" fill="#FFA000"/>
<path d="M36.2057 89.9506C36.009 89.8687 35.8533 90.016 35.8533 90.2862C35.8615 90.5482 36.0254 90.8265 36.2303 90.9084C36.427 90.9902 36.5827 90.8429 36.5827 90.5727C36.5745 90.3108 36.4024 90.0324 36.2057 89.9506Z" fill="#FFA000"/>
<path d="M67.3387 116.965L83.8271 126.51V121.255L67.3387 111.71V116.965Z" fill="#FFA000"/>
<path d="M73.78 109.966C73.5833 109.884 73.4276 110.031 73.4276 110.302C73.4358 110.564 73.5997 110.842 73.8045 110.924C74.0012 111.006 74.1569 110.858 74.1569 110.588C74.1487 110.326 73.9766 110.04 73.78 109.966Z" fill="#FFA000"/>
<path d="M74.9519 108.967C74.7552 108.885 74.5995 109.033 74.5995 109.303C74.6077 109.565 74.7716 109.843 74.9764 109.925C75.1731 110.007 75.3288 109.859 75.3288 109.589C75.3206 109.327 75.1485 109.041 74.9519 108.967Z" fill="#FFA000"/>
<path d="M74.9519 112.651C74.7552 112.569 74.5995 112.716 74.5995 112.987C74.6077 113.249 74.7716 113.527 74.9764 113.609C75.1731 113.691 75.3288 113.543 75.3288 113.273C75.3206 113.011 75.1485 112.733 74.9519 112.651Z" fill="#FFA000"/>
<path d="M77.8201 112.25C77.6234 112.168 77.4677 112.315 77.4677 112.586C77.4759 112.847 77.6398 113.126 77.8447 113.208C78.0414 113.29 78.1971 113.142 78.1971 112.872C78.1889 112.602 78.0168 112.324 77.8201 112.25Z" fill="#FFA000"/>
<path d="M76.5581 109.598C76.3614 109.516 76.2057 109.664 76.2057 109.934C76.2139 110.196 76.3778 110.474 76.5827 110.556C76.7793 110.638 76.9351 110.49 76.9351 110.22C76.9187 109.958 76.7548 109.68 76.5581 109.598Z" fill="#FFA000"/>
<path d="M76.5581 113.461C76.3614 113.38 76.2057 113.527 76.2057 113.797C76.2139 114.059 76.3778 114.337 76.5827 114.419C76.7793 114.501 76.9351 114.354 76.9351 114.084C76.9187 113.822 76.7548 113.543 76.5581 113.461Z" fill="#FFA000"/>
<path d="M109.748 97.0644L143.798 77.4502V68.74L109.748 88.4034V97.0644Z" fill="white"/>
<path d="M109.748 159.992L143.798 140.337V81.1257L109.748 100.74V159.992Z" fill="#464D5D"/>
<path d="M121 153.492L122.262 152.764V93.5607L121 94.2565V153.492Z" fill="#B0B5C1"/>
<path d="M124.884 115.827V122.646L132.227 118.381L140.889 93.5607V88.9027L132.899 93.5116L124.884 115.827Z" fill="#9DC3FE"/>
<path d="M136.939 115.655L140.889 104.326V101.002L135.284 116.613L136.939 115.655Z" fill="#9DC3FE"/>
<path d="M140.889 113.363V107.952L138.431 114.788L140.889 113.363Z" fill="#9DC3FE"/>
<path d="M124.884 108.689V112.585L131.194 94.5021L129.547 95.4435L124.884 108.689Z" fill="#9DC3FE"/>
<path d="M124.884 108.689L129.547 95.4435L124.884 98.1368V108.689Z" fill="#0E89C6"/>
<path opacity="0.5" d="M124.884 108.689L129.547 95.4435L124.884 98.1368V108.689Z" fill="#FAE8CA"/>
<path d="M124.884 112.586V115.827L132.899 93.5116L131.194 94.5021L124.884 112.586Z" fill="#0E89C6"/>
<path opacity="0.5" d="M124.884 112.586V115.827L132.899 93.5116L131.194 94.5021L124.884 112.586Z" fill="#FAE8CA"/>
<path d="M135.284 116.613L140.889 101.002V93.5607L132.227 118.381L135.284 116.613Z" fill="#0E89C6"/>
<path opacity="0.5" d="M135.284 116.613L140.889 101.002V93.5607L132.227 118.381L135.284 116.613Z" fill="#FAE8CA"/>
<path d="M138.431 114.788L140.889 107.952V104.326L136.939 115.655L138.431 114.788Z" fill="#0E89C6"/>
<path opacity="0.5" d="M138.431 114.788L140.889 107.952V104.326L136.939 115.655L138.431 114.788Z" fill="#FAE8CA"/>
<path d="M12.8498 43.952L14.0135 44.6233L77.6562 7.88338L76.4925 7.20392L12.8498 43.952Z" fill="#FFA000"/>
<path d="M24.8801 50.7875L26.0438 51.4588L89.6865 14.7189L88.5228 14.0312L24.8801 50.7875Z" fill="#FFA000"/>
<path d="M37.4923 58.1224L38.656 58.7937L102.299 22.0538L101.135 21.3743L37.4923 58.1224Z" fill="#FFA000"/>
<path d="M49.5226 64.9579L50.6863 65.6292L114.329 28.8893L113.165 28.2017L49.5226 64.9579Z" fill="#FFA000"/>
<path d="M60.9629 71.8589L62.1266 72.5302L125.769 35.7903L124.606 35.1108L60.9629 71.8589Z" fill="#FFA000"/>
<path d="M72.9932 78.6862L74.1569 79.3657L137.8 42.6258L136.636 41.9382L72.9932 78.6862Z" fill="#FFA000"/>
<path d="M16.6523 46.1541L76.1565 80.4136V59.8661L16.6523 25.6803V46.1541Z" fill="white"/>
<path d="M76.1565 80.3153L78.1479 79.3084V58.8673L76.1565 59.866V80.3153Z" fill="#464D5D"/>
<path d="M16.6523 25.6803L76.1565 59.866L78.1479 58.8673L18.7503 24.4523L16.6523 25.6803Z" fill="#CFD3DB"/>
<path d="M25.0768 39.9571V39.8998C25.839 40.0717 26.1832 39.425 26.1832 38.6473C26.1832 36.9691 25.126 35.864 23.7574 35.0781L21.512 33.7847V42.5194L23.9459 43.9274C25.3719 44.7542 26.5028 44.6069 26.5028 42.8305C26.5028 41.668 26.0111 40.7266 25.0768 39.9571ZM23.0035 36.1751L23.7083 36.5844C24.3885 36.9773 24.7326 37.4439 24.7326 38.0988C24.7326 38.7537 24.413 38.9829 23.6837 38.5654L23.0035 38.1725V36.1751ZM23.8312 42.3311L23.0035 41.8563V39.5642L23.8312 40.039C24.6425 40.5056 25.0604 41.0786 25.0604 41.8481C25.0523 42.6422 24.6343 42.7977 23.8312 42.3311Z" fill="#EE2D24"/>
<path d="M31.3379 44.345C31.3379 46.0641 30.9035 46.3997 30.1742 45.974C29.4366 45.5483 29.035 44.7297 29.035 43.0106V38.1234L27.5599 37.272V41.9628C27.5599 44.8934 28.4778 46.6944 30.1742 47.6768C31.8705 48.6591 32.7638 47.8978 32.7638 44.9671V40.2764L31.3379 39.4496V44.345Z" fill="#EE2D24"/>
<path d="M36.4925 45.7939C35.9189 45.1553 35.4845 44.7215 35.4845 44.1812C35.4845 43.6818 35.8205 43.5836 36.3204 43.8701C36.8449 44.173 37.2547 44.6642 37.689 45.3518L38.4348 44.5332C37.8693 43.4608 37.0744 42.6012 36.3204 42.1592C34.9601 41.3733 33.9849 41.9627 33.9849 43.4117C33.9849 44.6805 34.6323 45.8103 35.3124 46.5634L36.1565 47.5294C36.7302 48.1843 37.1072 48.569 37.1072 49.1175C37.1072 49.6414 36.8039 49.7888 36.1893 49.4368C35.6484 49.1257 35.042 48.3971 34.5831 47.5949L33.7308 48.4544C34.4028 49.6742 35.3124 50.6238 36.1647 51.1149C37.7218 52.0154 38.6314 51.2787 38.6314 49.8297C38.6314 48.5936 38.1315 47.5949 37.3366 46.7107L36.4925 45.7939Z" fill="#EE2D24"/>
<path d="M41.2866 46.8581L43.0977 47.8977V54.9789L44.581 55.8302V48.7573L46.3758 49.7888V48.127L41.2866 45.1963V46.8581Z" fill="#EE2D24"/>
<path d="M47.3919 57.4511L48.8752 58.3107V49.5759L47.3919 48.7164V57.4511Z" fill="#EE2D24"/>
<path d="M53.2022 59.2603C52.2434 58.7118 51.6124 57.2956 51.6124 55.5028C51.6124 53.7509 52.3254 53.1042 53.2432 53.6281C53.7021 53.8983 54.0135 54.324 54.3495 54.9215L55.1608 54.1684C54.7183 53.3089 54.0299 52.3838 53.2186 51.909C51.5304 50.9348 50.0881 51.7944 50.0881 54.6842C50.0881 57.623 51.4731 59.9643 53.1776 60.9384C53.9889 61.4051 54.7183 61.3805 55.2592 60.8566L54.4479 59.1948C54.1283 59.4895 53.7431 59.5795 53.2022 59.2603Z" fill="#EE2D24"/>
<path d="M61.3399 56.7553L59.7173 55.822L57.7587 58.2697L57.7259 58.2534V54.676L56.2344 53.8164V62.5511L57.7259 63.4107V61.0694L58.488 60.1689L60.0779 64.7696L61.7087 65.711L59.3567 59.0965L61.3399 56.7553Z" fill="#EE2D24"/>
<path d="M63.8885 63.2961L66.1176 64.5813V62.9359L63.8885 61.6507V59.8906L66.511 61.4051V59.7433L62.397 57.3693V66.1122L66.6093 68.5353V66.8735L63.8885 65.3017V63.2961Z" fill="#EE2D24"/>
<path d="M67.3633 61.8963L69.1744 62.9441V70.0171L70.6495 70.8684V63.7955L72.4524 64.8352V63.1734L67.3633 60.2345V61.8963Z" fill="#EE2D24"/>
</g>
<defs>
<clipPath id="clip0_26_27">
<rect width="160" height="173" fill="white"/>
</clipPath>
</defs>
</svg>
