<svg width="28" height="32" viewBox="0 0 28 32" fill="none" xmlns="http://www.w3.org/2000/svg">
<path fill-rule="evenodd" clip-rule="evenodd" d="M27.2828 22.8787C26.5629 24.4782 26.2177 25.1926 25.2907 26.6058C23.996 28.5794 22.1729 31.0373 19.9131 31.0585C17.9054 31.0768 17.3898 29.7483 14.665 29.7639C11.9403 29.7794 11.3711 31.081 9.36206 31.0627C7.10224 31.0415 5.37497 28.8222 4.08022 26.8486C0.462252 21.3286 0.0832667 14.8514 2.31491 11.4081C3.90129 8.96152 6.40203 7.52858 8.75484 7.52858C11.1499 7.52858 12.656 8.84435 14.6354 8.84435C16.5557 8.84435 17.7265 7.52576 20.4963 7.52576C22.5899 7.52576 24.8075 8.66787 26.3868 10.6429C21.2106 13.4876 22.0517 20.898 27.2828 22.8787Z" fill="#646D84"/>
<path fill-rule="evenodd" clip-rule="evenodd" d="M18.3957 5.32337C19.4017 4.0302 20.1653 2.20196 19.8891 0.334198C18.2464 0.447139 16.3233 1.49467 15.2004 2.86126C14.1818 4.10079 13.3407 5.94032 13.669 7.72761C15.4625 7.78267 17.318 6.70973 18.3957 5.32337Z" fill="#646D84"/>
</svg>
