<svg width="20" height="20" viewBox="0 0 20 20" fill="none" xmlns="http://www.w3.org/2000/svg">
<path d="M2.49998 5C1.57498 5 0.833313 5.74167 0.833313 6.66667V12.5H2.49998C2.49998 13.163 2.76337 13.7989 3.23221 14.2678C3.70105 14.7366 4.33694 15 4.99998 15C5.66302 15 6.29891 14.7366 6.76775 14.2678C7.23659 13.7989 7.49998 13.163 7.49998 12.5H12.5C12.5 13.163 12.7634 13.7989 13.2322 14.2678C13.7011 14.7366 14.3369 15 15 15C15.663 15 16.2989 14.7366 16.7677 14.2678C17.2366 13.7989 17.5 13.163 17.5 12.5H19.1666V6.66667C19.1666 5.74167 18.425 5 17.5 5H2.49998ZM2.08331 6.25H5.41665V8.33333H2.08331V6.25ZM6.66665 6.25H9.99998V8.33333H6.66665V6.25ZM11.25 6.25H14.5833V8.33333H11.25V6.25ZM15.8333 6.25H17.9166V10.8333L15.8333 9.16667V6.25ZM4.99998 11.25C5.3315 11.25 5.64944 11.3817 5.88386 11.6161C6.11828 11.8505 6.24998 12.1685 6.24998 12.5C6.24998 12.8315 6.11828 13.1495 5.88386 13.3839C5.64944 13.6183 5.3315 13.75 4.99998 13.75C4.66846 13.75 4.35052 13.6183 4.1161 13.3839C3.88168 13.1495 3.74998 12.8315 3.74998 12.5C3.74998 12.1685 3.88168 11.8505 4.1161 11.6161C4.35052 11.3817 4.66846 11.25 4.99998 11.25V11.25ZM15 11.25C15.3315 11.25 15.6494 11.3817 15.8839 11.6161C16.1183 11.8505 16.25 12.1685 16.25 12.5C16.25 12.8315 16.1183 13.1495 15.8839 13.3839C15.6494 13.6183 15.3315 13.75 15 13.75C14.6685 13.75 14.3505 13.6183 14.1161 13.3839C13.8817 13.1495 13.75 12.8315 13.75 12.5C13.75 12.1685 13.8817 11.8505 14.1161 11.6161C14.3505 11.3817 14.6685 11.25 15 11.25Z" fill="currentColor"/>
</svg>
