<svg width="40" height="40" viewBox="0 0 40 40" fill="none" xmlns="http://www.w3.org/2000/svg">
<path d="M35.0067 13.2917V10C35.0067 6.32334 32.0167 3.33334 28.34 3.33334H11.6733C7.99666 3.33334 5.00666 6.32334 5.00666 10V13.33L4.88 13.3367C4.45966 13.367 4.06643 13.5555 3.77946 13.8641C3.49248 14.1727 3.33308 14.5786 3.33333 15V18.3333C3.33333 18.7754 3.50892 19.1993 3.82148 19.5118C4.13404 19.8244 4.55797 20 5 20H5.00666V30C5.00666 31.225 5.67833 32.2867 6.66666 32.8667V35C6.66666 35.442 6.84226 35.866 7.15482 36.1785C7.46738 36.4911 7.8913 36.6667 8.33333 36.6667H10C10.442 36.6667 10.8659 36.4911 11.1785 36.1785C11.4911 35.866 11.6667 35.442 11.6667 35V33.3333H28.3333V35C28.3333 35.442 28.5089 35.866 28.8215 36.1785C29.134 36.4911 29.558 36.6667 30 36.6667H31.6667C32.1087 36.6667 32.5326 36.4911 32.8452 36.1785C33.1577 35.866 33.3333 35.442 33.3333 35V32.8733C33.84 32.5835 34.2614 32.1654 34.5552 31.661C34.8489 31.1566 35.0046 30.5837 35.0067 30V20C35.4487 20 35.8726 19.8244 36.1852 19.5118C36.4977 19.1993 36.6733 18.7754 36.6733 18.3333V15.1033C36.6925 14.8447 36.6514 14.5851 36.5533 14.345C36.215 13.5333 35.495 13.3383 35.0067 13.2917ZM31.6767 30H8.34V21.6667H31.675L31.6767 30ZM18.34 11.6667V18.3333H8.34V11.6667H18.34ZM31.6733 11.6667V18.3333H21.6733V11.6667H31.6733ZM11.6733 6.66667H28.34C29.5667 6.66667 30.6317 7.34167 31.21 8.33334H8.80333C9.38166 7.34167 10.4467 6.66667 11.6733 6.66667Z" fill="#FFA000"/>
<path d="M12.5 28.3333C13.8807 28.3333 15 27.214 15 25.8333C15 24.4526 13.8807 23.3333 12.5 23.3333C11.1193 23.3333 10 24.4526 10 25.8333C10 27.214 11.1193 28.3333 12.5 28.3333Z" fill="#FFA000"/>
<path d="M27.5 28.3333C28.8807 28.3333 30 27.214 30 25.8333C30 24.4526 28.8807 23.3333 27.5 23.3333C26.1193 23.3333 25 24.4526 25 25.8333C25 27.214 26.1193 28.3333 27.5 28.3333Z" fill="#FFA000"/>
</svg>
