<svg width="40" height="40" viewBox="0 0 40 40" fill="none" xmlns="http://www.w3.org/2000/svg">
<path d="M20 18C20.6593 18 21.3037 17.8045 21.8519 17.4382C22.4001 17.072 22.8273 16.5514 23.0796 15.9423C23.3319 15.3332 23.3979 14.663 23.2693 14.0164C23.1407 13.3698 22.8232 12.7758 22.357 12.3096C21.8908 11.8435 21.2969 11.526 20.6503 11.3974C20.0037 11.2688 19.3335 11.3348 18.7244 11.5871C18.1153 11.8394 17.5947 12.2666 17.2284 12.8148C16.8622 13.3629 16.6667 14.0074 16.6667 14.6667C16.6667 15.5507 17.0178 16.3986 17.643 17.0237C18.2681 17.6488 19.1159 18 20 18ZM18.8167 29.5167C18.9716 29.6729 19.1559 29.7969 19.359 29.8815C19.5621 29.9661 19.78 30.0097 20 30.0097C20.22 30.0097 20.4379 29.9661 20.641 29.8815C20.844 29.7969 21.0284 29.6729 21.1833 29.5167L28 22.6833C29.5832 21.1009 30.6616 19.0845 31.0988 16.8891C31.5359 14.6937 31.3121 12.418 30.4558 10.3498C29.5994 8.28162 28.149 6.51385 26.2878 5.27009C24.4267 4.02634 22.2385 3.36248 20 3.36248C17.7615 3.36248 15.5733 4.02634 13.7122 5.27009C11.851 6.51385 10.4005 8.28162 9.54419 10.3498C8.68783 12.418 8.46407 14.6937 8.9012 16.8891C9.33834 19.0845 10.4167 21.1009 12 22.6833L18.8167 29.5167ZM12.05 13.9C12.1639 12.7117 12.5417 11.5638 13.1559 10.5402C13.77 9.51656 14.6051 8.64301 15.6 7.98333C16.907 7.12516 18.4364 6.66793 20 6.66793C21.5635 6.66793 23.093 7.12516 24.4 7.98333C25.3883 8.64075 26.2186 9.509 26.8312 10.5256C27.4438 11.5423 27.8236 12.682 27.9431 13.863C28.0626 15.0439 27.919 16.2366 27.5225 17.3554C27.126 18.4742 26.4865 19.4912 25.65 20.3333L20 25.9833L14.35 20.3333C13.5125 19.4994 12.8715 18.4892 12.4737 17.3763C12.0758 16.2635 11.9311 15.0759 12.05 13.9ZM31.6667 33.3333H8.33332C7.8913 33.3333 7.46737 33.5089 7.15481 33.8215C6.84225 34.134 6.66666 34.558 6.66666 35C6.66666 35.442 6.84225 35.866 7.15481 36.1785C7.46737 36.4911 7.8913 36.6667 8.33332 36.6667H31.6667C32.1087 36.6667 32.5326 36.4911 32.8452 36.1785C33.1577 35.866 33.3333 35.442 33.3333 35C33.3333 34.558 33.1577 34.134 32.8452 33.8215C32.5326 33.5089 32.1087 33.3333 31.6667 33.3333Z" fill="#FFA000"/>
</svg>
