<svg width="40" height="40" viewBox="0 0 40 40" fill="none" xmlns="http://www.w3.org/2000/svg">
<path d="M15 16.6667C14.558 16.6667 14.1341 16.8423 13.8215 17.1548C13.5089 17.4674 13.3333 17.8913 13.3333 18.3333V21.6667C13.3333 22.1087 13.5089 22.5326 13.8215 22.8452C14.1341 23.1577 14.558 23.3333 15 23.3333C15.442 23.3333 15.866 23.1577 16.1785 22.8452C16.4911 22.5326 16.6667 22.1087 16.6667 21.6667V18.3333C16.6667 17.8913 16.4911 17.4674 16.1785 17.1548C15.866 16.8423 15.442 16.6667 15 16.6667ZM35 18.3333C35.442 18.3333 35.866 18.1577 36.1785 17.8452C36.4911 17.5326 36.6667 17.1087 36.6667 16.6667V10C36.6667 9.55798 36.4911 9.13405 36.1785 8.82149C35.866 8.50893 35.442 8.33334 35 8.33334H5.00001C4.55798 8.33334 4.13406 8.50893 3.8215 8.82149C3.50894 9.13405 3.33334 9.55798 3.33334 10V16.6667C3.33334 17.1087 3.50894 17.5326 3.8215 17.8452C4.13406 18.1577 4.55798 18.3333 5.00001 18.3333C5.44204 18.3333 5.86596 18.5089 6.17852 18.8215C6.49108 19.1341 6.66668 19.558 6.66668 20C6.66668 20.442 6.49108 20.866 6.17852 21.1785C5.86596 21.4911 5.44204 21.6667 5.00001 21.6667C4.55798 21.6667 4.13406 21.8423 3.8215 22.1548C3.50894 22.4674 3.33334 22.8913 3.33334 23.3333V30C3.33334 30.442 3.50894 30.866 3.8215 31.1785C4.13406 31.4911 4.55798 31.6667 5.00001 31.6667H35C35.442 31.6667 35.866 31.4911 36.1785 31.1785C36.4911 30.866 36.6667 30.442 36.6667 30V23.3333C36.6667 22.8913 36.4911 22.4674 36.1785 22.1548C35.866 21.8423 35.442 21.6667 35 21.6667C34.558 21.6667 34.1341 21.4911 33.8215 21.1785C33.5089 20.866 33.3333 20.442 33.3333 20C33.3333 19.558 33.5089 19.1341 33.8215 18.8215C34.1341 18.5089 34.558 18.3333 35 18.3333ZM33.3333 15.3C32.3681 15.6503 31.5341 16.2894 30.9447 17.1303C30.3554 17.9712 30.0392 18.9731 30.0392 20C30.0392 21.0269 30.3554 22.0288 30.9447 22.8697C31.5341 23.7106 32.3681 24.3497 33.3333 24.7V28.3333H16.6667C16.6667 27.8913 16.4911 27.4674 16.1785 27.1548C15.866 26.8423 15.442 26.6667 15 26.6667C14.558 26.6667 14.1341 26.8423 13.8215 27.1548C13.5089 27.4674 13.3333 27.8913 13.3333 28.3333H6.66668V24.7C7.63193 24.3497 8.46591 23.7106 9.05527 22.8697C9.64464 22.0288 9.9608 21.0269 9.9608 20C9.9608 18.9731 9.64464 17.9712 9.05527 17.1303C8.46591 16.2894 7.63193 15.6503 6.66668 15.3V11.6667H13.3333C13.3333 12.1087 13.5089 12.5326 13.8215 12.8452C14.1341 13.1577 14.558 13.3333 15 13.3333C15.442 13.3333 15.866 13.1577 16.1785 12.8452C16.4911 12.5326 16.6667 12.1087 16.6667 11.6667H33.3333V15.3Z" fill="#FFA000"/>
</svg>
