<svg width="64" height="56" viewBox="0 0 64 56" fill="none" xmlns="http://www.w3.org/2000/svg">
<path d="M57.7632 56H6.2368C2.7936 56 0 53.2223 0 49.7986V6.20136C0 2.77773 2.7936 0 6.2368 0H57.7632C61.2064 0 64 2.77773 64 6.20136V49.7986C64 53.2223 61.2064 56 57.7632 56Z" fill="#FEEE00"/>
<path d="M57.5552 0.957703H6.44476C3.37916 0.957703 0.892761 3.42998 0.892761 6.47816V49.4995C0.892761 52.5477 3.37916 55.02 6.44476 55.02H57.5584C60.624 55.02 63.1104 52.5477 63.1104 49.4995V6.47816C63.1072 3.42679 60.624 0.957703 57.5552 0.957703ZM62.0032 49.9291C62.0032 52.2104 60.144 54.0591 57.8496 54.0591H6.15356C3.85916 54.0591 1.99996 52.2104 1.99996 49.9291V6.04861C1.99996 3.76725 3.85916 1.91861 6.15356 1.91861H57.8496C60.144 1.91861 62.0032 3.76725 62.0032 6.04861V49.9291Z" fill="#EE2D24"/>
<path d="M62 48.6786H1.99683V49.945H62V48.6786Z" fill="#00954C"/>
<path d="M62 36.8996H1.99683V39.4069H62V36.8996Z" fill="#00954C"/>
<path d="M4.50562 7.03821H11.024L28.2464 33.5555L45.6512 7.03821H52.0352L32.4832 36.8996H24.1696L4.50562 7.03821Z" fill="#00954C"/>
<path d="M55.8592 7.03821H55.056L35.1104 36.8996H35.7696L55.8592 7.03821Z" fill="#00954C"/>
<path d="M59.9744 7.03821H59.1744L39.2288 36.8996H39.888L59.9744 7.03821Z" fill="#00954C"/>
<path d="M17.9456 7.03821H38.8832L28.416 23.0459L17.9456 7.03821Z" fill="#EE2D24"/>
<path d="M4.16638 40.7527L7.35358 47.6604H8.72638L11.8304 40.7527H10.2688L7.99678 45.8341L5.85598 40.7527H4.16638Z" fill="#00954C"/>
<path d="M17.6256 47.6604H19.152L15.9648 40.7527H14.592L11.488 47.6604H13.0496L13.8752 45.8118H16.7872L17.6256 47.6604ZM14.4288 44.5741L15.3184 42.5791L16.224 44.5741H14.4288Z" fill="#00954C"/>
<path d="M20.2079 47.6604V40.7527H22.2847L25.6575 45.8373V40.7527H27.1519V47.6604H25.3247L21.8687 42.665V47.6604H20.2079Z" fill="#00954C"/>
<path d="M45.136 47.6604V40.7527H47.2096L50.5824 45.8373V40.7527H52.0768V47.6604H50.2496L46.7968 42.665V47.6604H45.136Z" fill="#00954C"/>
<path d="M43.7088 40.7527H42.1216V47.6604H43.7088V40.7527Z" fill="#00954C"/>
<path d="M58.2272 40.7527V43.5304H55.36V40.7527H53.7728V47.6604H55.36V44.8827H58.2272V47.6604H59.8144V40.7527H58.2272Z" fill="#00954C"/>
<path d="M32 47.6604V40.7527H34L36.3168 45.8404L38.4864 40.7527H40.6528V47.6604H39.0272V43.1454L37.0752 47.6604H35.6256L33.5872 42.9514V47.6604H32Z" fill="#00954C"/>
</svg>
