<svg width="243" height="263" viewBox="0 0 243 263" fill="none" xmlns="http://www.w3.org/2000/svg">
<path d="M23.1953 53.5571V180.477L164.884 262.346V134.863L23.1953 53.5571Z" fill="#B0B5C1"/>
<path d="M5.76941 148.049V151.575L147.445 233.418V230.206L5.76941 148.049Z" fill="#9198A9"/>
<path d="M5.76941 148.049L147.445 230.206L164.884 220.297L23.1953 137.982L5.76941 148.049Z" fill="white"/>
<path d="M29.8301 141.836L159.417 217.125V132.516L29.8301 57.2534V141.836Z" fill="#FEB232"/>
<path d="M42.5487 117.456L78.3184 138.127V111.256L42.5487 90.5991V117.456Z" fill="#464D5D"/>
<path d="M45.6825 103.523L75.9714 121.021V119.841L45.6825 102.343V103.523Z" fill="white"/>
<path d="M45.6825 106.446L75.9714 123.931V122.765L45.6825 105.266V106.446Z" fill="white"/>
<path d="M45.6825 109.552L75.9714 127.051V125.871L45.6825 108.386V109.552Z" fill="white"/>
<path d="M45.6825 112.672L75.9714 130.157V128.991L45.6825 111.492V112.672Z" fill="white"/>
<path d="M45.6825 115.778L75.9714 133.277V132.097L45.6825 114.612V115.778Z" fill="white"/>
<path d="M78.3184 138.126L79.7869 137.314V110.588L78.3184 111.4V138.126Z" fill="#232731"/>
<path d="M42.5487 90.6381L78.3184 111.4L79.787 110.588L43.873 89.7468L42.5487 90.6381Z" fill="#6F5F6A"/>
<path d="M45.4858 94.4392V96.5757L45.9579 96.851C46.4299 97.1262 46.7446 96.9559 46.7446 96.2218C46.7446 95.4878 46.4299 94.9897 45.9448 94.7014L45.4858 94.4392ZM45.9185 96.4315L45.853 96.3922V95.0422L45.9185 95.0815C46.1939 95.2388 46.3775 95.5009 46.3775 96.0121C46.3775 96.5233 46.1808 96.5888 45.9185 96.4315Z" fill="white"/>
<path d="M47.4133 96.7858L47.9509 97.1004V96.6941L47.4133 96.3795V95.96L48.0558 96.3271V95.9207L47.0461 95.344V97.4805L48.082 98.0703V97.664L47.4133 97.2839V96.7858Z" fill="white"/>
<path d="M48.9736 96.4579L48.3835 96.1171V98.2536L48.7507 98.4633V97.7424L48.9736 97.8735C49.3145 98.0701 49.603 98.0176 49.603 97.5065C49.603 96.9822 49.3276 96.6545 48.9736 96.4579ZM48.9605 97.4671L48.7638 97.3492V96.7069L48.9605 96.8249C49.1572 96.9297 49.2621 97.0739 49.2621 97.2967C49.2489 97.5196 49.1572 97.5851 48.9605 97.4671Z" fill="white"/>
<path d="M50.0619 97.0739L49.5505 98.922L49.9177 99.1317L50.0226 98.6861L50.5208 98.9744L50.6257 99.5381L51.006 99.7609L50.5077 97.336L50.0619 97.0739ZM50.1012 98.3453L50.1406 98.1749C50.1799 97.9914 50.2324 97.7686 50.2717 97.5588H50.2848C50.3241 97.8079 50.3766 98.0831 50.4159 98.3191L50.4553 98.5419L50.1012 98.3453Z" fill="white"/>
<path d="M52.3697 99.0792C52.3697 98.568 52.0944 98.2535 51.7534 98.0569L51.1765 97.7161V99.8526L51.5437 100.062V99.289L51.7403 99.4069L52.0419 100.351L52.4484 100.587L52.0812 99.5249C52.2517 99.5249 52.3697 99.3938 52.3697 99.0792ZM51.7141 99.0137L51.5305 98.9088V98.3059L51.7141 98.4108C51.8977 98.5156 52.0026 98.6467 52.0026 98.8564C52.0157 99.0792 51.9108 99.1317 51.7141 99.0137Z" fill="white"/>
<path d="M52.5007 98.8958L52.9465 99.1449V100.875L53.3137 101.085V99.3546L53.7464 99.6167V99.2104L52.5007 98.4895V98.8958Z" fill="white"/>
<path d="M54.9134 101.085C54.9134 101.504 54.8085 101.583 54.6249 101.478C54.4413 101.373 54.3496 101.176 54.3496 100.757V99.5642L53.9824 99.3545V100.495C53.9824 101.216 54.2053 101.648 54.6249 101.897C55.0445 102.133 55.2543 101.95 55.2543 101.229V100.089L54.9003 99.8919V101.085H54.9134Z" fill="white"/>
<path d="M56.8277 101.648C56.8277 101.137 56.5524 100.823 56.2115 100.626L55.6345 100.298V102.435L56.0017 102.645V101.871L56.1983 101.989L56.4999 102.933L56.9064 103.169L56.5393 102.107C56.7228 102.094 56.8277 101.963 56.8277 101.648ZM56.1852 101.596L56.0017 101.491V100.888L56.1852 100.993C56.3688 101.098 56.4737 101.229 56.4737 101.439C56.4737 101.662 56.3688 101.701 56.1852 101.596Z" fill="white"/>
<path d="M57.5095 102.618L58.0603 102.933V102.527L57.5095 102.212V101.793L58.152 102.16V101.753L57.1555 101.177V103.3L58.1783 103.903V103.497L57.5095 103.116V102.618Z" fill="white"/>
<path d="M59.07 103.103C58.9257 102.946 58.8209 102.841 58.8209 102.71C58.8209 102.592 58.8995 102.566 59.0306 102.631C59.1618 102.71 59.2667 102.828 59.3716 102.998L59.5551 102.802C59.424 102.54 59.2273 102.33 59.0438 102.225C58.716 102.028 58.4799 102.173 58.4799 102.527C58.4799 102.841 58.6373 103.116 58.8077 103.3L59.0175 103.536C59.1618 103.693 59.2535 103.785 59.2535 103.929C59.2535 104.06 59.1749 104.099 59.0306 104.008C58.8995 103.929 58.7553 103.759 58.6373 103.562L58.4275 103.772C58.5979 104.073 58.8077 104.296 59.0175 104.427C59.3978 104.65 59.6207 104.466 59.6207 104.113C59.6207 103.811 59.5027 103.562 59.306 103.352L59.07 103.103Z" fill="white"/>
<path d="M71.3428 109.198L71.0806 109.041C70.9757 109.067 70.8577 109.067 70.6872 109.002V109.303L70.9757 109.474V110.679L70.6348 110.483V110.876L71.6313 111.453V111.06L71.3428 110.889V109.198Z" fill="white"/>
<path d="M72.8245 110.05L72.3787 109.788L71.8018 110.706V111.034L72.4836 111.427V111.925L72.8245 112.121V111.623L73.0081 111.728V111.361L72.8245 111.256V110.05ZM72.4967 110.732V111.073L72.1689 110.876L72.3787 110.549C72.418 110.457 72.4705 110.365 72.5098 110.273L72.5229 110.286C72.4967 110.404 72.4967 110.601 72.4967 110.732Z" fill="white"/>
<path d="M73.2178 112.095C73.2178 112.266 73.3096 112.449 73.4407 112.528C73.5587 112.606 73.6636 112.528 73.6636 112.357C73.6636 112.187 73.5718 112.003 73.4407 111.925C73.3096 111.846 73.2178 111.925 73.2178 112.095Z" fill="white"/>
<path d="M73.2178 111.033C73.2178 111.204 73.3096 111.387 73.4407 111.466C73.5587 111.532 73.6636 111.466 73.6636 111.296C73.6636 111.125 73.5718 110.942 73.4407 110.863C73.3096 110.784 73.2178 110.863 73.2178 111.033Z" fill="white"/>
<path d="M73.8997 111.702C73.8997 112.41 74.1226 112.921 74.4635 113.104C74.7913 113.301 75.0142 113.052 75.0142 112.344C75.0142 111.636 74.7913 111.151 74.4635 110.955C74.1226 110.758 73.8997 110.994 73.8997 111.702ZM74.4635 112.737C74.3455 112.672 74.2406 112.462 74.2406 111.898C74.2406 111.335 74.3324 111.256 74.4635 111.322C74.5815 111.387 74.6733 111.571 74.6733 112.147C74.6733 112.711 74.5815 112.816 74.4635 112.737Z" fill="white"/>
<path d="M75.1979 112.449C75.1979 113.157 75.4208 113.668 75.7617 113.851C76.0895 114.048 76.3255 113.799 76.3255 113.091C76.3255 112.383 76.1026 111.898 75.7617 111.702C75.4208 111.518 75.1979 111.741 75.1979 112.449ZM75.7617 113.484C75.6437 113.419 75.5388 113.209 75.5388 112.646C75.5388 112.069 75.6306 112.003 75.7617 112.069C75.8797 112.134 75.9846 112.318 75.9846 112.895C75.9715 113.471 75.8797 113.563 75.7617 113.484Z" fill="white"/>
<path d="M45.5646 98.9089V100.652L45.9579 100.875C46.3382 101.098 46.6004 100.967 46.6004 100.364C46.6004 99.7609 46.3382 99.3546 45.9448 99.1187L45.5646 98.9089ZM45.9186 100.547L45.8662 100.521V99.407L45.9186 99.4332C46.1415 99.5643 46.2989 99.774 46.2989 100.193C46.2857 100.613 46.1415 100.665 45.9186 100.547Z" fill="white"/>
<path d="M47.138 100.836L47.5838 101.085V100.757L47.138 100.495V100.154L47.6625 100.456V100.115L46.8364 99.6432V101.386L47.6756 101.885V101.544L47.138 101.229V100.836Z" fill="white"/>
<path d="M48.4098 101.216C48.2918 101.085 48.2132 101.006 48.2132 100.888C48.2132 100.783 48.2787 100.77 48.3836 100.823C48.4885 100.888 48.5672 100.98 48.659 101.124L48.8032 100.967C48.6852 100.757 48.5279 100.574 48.3836 100.495C48.1083 100.338 47.9116 100.456 47.9116 100.744C47.9116 100.993 48.0427 101.229 48.1738 101.373L48.3443 101.57C48.4623 101.701 48.5278 101.779 48.5278 101.884C48.5278 101.989 48.4623 102.015 48.3443 101.95C48.2394 101.884 48.1214 101.74 48.0296 101.583L47.8591 101.753C47.9903 102.002 48.1738 102.186 48.3443 102.291C48.659 102.474 48.8425 102.317 48.8425 102.028C48.8425 101.779 48.7376 101.583 48.5803 101.399L48.4098 101.216Z" fill="white"/>
<path d="M48.895 101.163L49.2622 101.373V102.789L49.5637 102.959V101.543L49.9178 101.753V101.426L48.895 100.836V101.163Z" fill="white"/>
<path d="M50.1276 103.287L50.416 103.457V101.714L50.1276 101.543V103.287Z" fill="white"/>
<path d="M51.4781 102.933C51.4781 103.143 51.5043 103.405 51.5174 103.588H51.5043L51.3732 103.13L51.0323 102.068L50.7307 101.897V103.641L51.0192 103.811V103.195C51.0192 102.985 50.993 102.736 50.9798 102.54H50.993L51.1241 102.998L51.465 104.073L51.7666 104.244V102.5L51.4912 102.343V102.933H51.4781Z" fill="white"/>
<path d="M52.3042 102.802L51.8977 104.309L52.1993 104.48L52.2779 104.112L52.6844 104.348L52.7631 104.807L53.0778 104.991L52.6713 102.998L52.3042 102.802ZM52.3435 103.837L52.3697 103.693C52.4091 103.536 52.4353 103.352 52.4746 103.195H52.4877C52.5271 103.405 52.5533 103.628 52.5926 103.824L52.6189 104.008L52.3435 103.837Z" fill="white"/>
<path d="M53.0253 103.549L53.3924 103.759V105.174L53.6809 105.345V103.929L54.048 104.139V103.811L53.0253 103.208V103.549Z" fill="white"/>
<path d="M54.2448 105.672L54.5463 105.843V104.086L54.2448 103.916V105.672Z" fill="white"/>
<path d="M54.7823 105.096C54.7823 105.672 55.0315 106.144 55.3724 106.354C55.7264 106.564 55.9755 106.354 55.9755 105.777C55.9755 105.214 55.7395 104.742 55.3724 104.532C55.0315 104.335 54.7823 104.519 54.7823 105.096ZM55.3855 106.013C55.215 105.908 55.097 105.62 55.097 105.266C55.097 104.912 55.215 104.768 55.3855 104.873C55.5691 104.978 55.674 105.253 55.674 105.594C55.674 105.961 55.556 106.118 55.3855 106.013Z" fill="white"/>
<path d="M56.972 106.105C56.972 106.315 56.9982 106.577 57.0113 106.76H56.9982L56.8671 106.301L56.5262 105.24L56.2246 105.069V106.813L56.5131 106.983V106.367C56.5131 106.157 56.4868 105.908 56.4737 105.712L56.6049 106.17L56.9458 107.245L57.2474 107.416V105.672L56.9589 105.502V106.105H56.972Z" fill="white"/>
<path d="M63.1347 110.142L63.3576 110.273V110.575C63.3182 110.588 63.2658 110.575 63.2133 110.548C62.9642 110.404 62.8462 110.129 62.8462 109.762C62.8462 109.408 62.9904 109.277 63.1871 109.395C63.3051 109.46 63.3576 109.552 63.4362 109.67L63.5936 109.526C63.5018 109.356 63.3707 109.172 63.1871 109.054C62.8331 108.844 62.5315 109.015 62.5315 109.605C62.5315 110.194 62.82 110.666 63.174 110.863C63.3576 110.968 63.5149 110.955 63.6198 110.902V110.103L63.1347 109.827V110.142Z" fill="white"/>
<path d="M64.1181 109.631L63.6985 111.138L64.0001 111.309L64.0787 110.942L64.4852 111.178L64.5639 111.637L64.8786 111.82L64.459 109.828L64.1181 109.631ZM64.1443 110.667L64.1705 110.522C64.2099 110.365 64.2492 110.182 64.2754 110.024H64.2885C64.3279 110.221 64.3541 110.457 64.3934 110.653L64.4196 110.837L64.1443 110.667Z" fill="white"/>
<path d="M64.8262 110.365L65.1933 110.575V112.004L65.4949 112.174V110.758L65.8489 110.955V110.627L64.8262 110.037V110.365Z" fill="white"/>
<path d="M66.3472 111.925L66.793 112.187V111.859L66.3472 111.597V111.243L66.8717 111.558V111.217L66.0457 110.745V112.488L66.8979 112.973V112.645L66.3472 112.331V111.925Z" fill="white"/>
<path d="M71.3167 114.1L71.6838 114.31V115.726L71.9723 115.896V114.481L72.3394 114.69V114.363L71.3167 113.773V114.1Z" fill="white"/>
<path d="M72.5359 116.224L72.8375 116.395V114.651L72.5359 114.481V116.224Z" fill="white"/>
<path d="M73.834 116.015L73.7554 116.277H73.7422L73.6636 115.923L73.4407 115.005L73.126 114.822V116.565L73.4013 116.722V116.08C73.4013 115.91 73.3751 115.634 73.362 115.464H73.3751L73.48 115.936L73.6767 116.735L73.7947 116.801L74.0045 116.237L74.1094 115.897H74.1225C74.1094 116.054 74.0832 116.303 74.0832 116.473V117.116L74.3585 117.273V115.53L74.0569 115.346L73.834 116.015Z" fill="white"/>
<path d="M74.9617 116.892L75.4075 117.154V116.827L74.9617 116.565V116.211L75.4862 116.512V116.184L74.6732 115.699V117.456L75.5124 117.941V117.613L74.9617 117.299V116.892Z" fill="white"/>
<path d="M109.578 153.764L145.36 174.434V147.577L109.578 126.907V153.764Z" fill="#464D5D"/>
<path d="M112.724 139.83L143 157.329V156.149L112.724 138.664V139.83Z" fill="white"/>
<path d="M112.724 142.753L143 160.252V159.072L112.724 141.574V142.753Z" fill="white"/>
<path d="M112.724 145.873L143 163.358V162.179L112.724 144.693V145.873Z" fill="white"/>
<path d="M112.724 148.979L143 166.478V165.298L112.724 147.8V148.979Z" fill="white"/>
<path d="M112.724 152.099L143 169.584V168.405L112.724 150.919V152.099Z" fill="white"/>
<path d="M145.36 174.434L146.829 173.621V146.895L145.36 147.708V174.434Z" fill="#232731"/>
<path d="M109.578 126.946L145.36 147.708L146.829 146.895L110.915 126.054L109.578 126.946Z" fill="#646D84"/>
<path d="M112.528 130.747V132.883L113 133.159C113.472 133.434 113.786 133.263 113.786 132.529C113.786 131.795 113.472 131.297 112.974 131.009L112.528 130.747ZM112.96 132.739L112.895 132.7V131.35L112.96 131.389C113.223 131.546 113.419 131.809 113.419 132.32C113.406 132.831 113.223 132.896 112.96 132.739Z" fill="white"/>
<path d="M114.442 133.093L114.993 133.408V133.015L114.442 132.7V132.268L115.098 132.635V132.228L114.088 131.652V133.788L115.124 134.378V133.972L114.442 133.592V133.093Z" fill="white"/>
<path d="M116.016 132.765L115.426 132.425V134.561L115.793 134.771V134.05L116.016 134.181C116.356 134.378 116.645 134.325 116.645 133.814C116.645 133.303 116.37 132.962 116.016 132.765ZM115.989 133.775L115.793 133.657V133.015L115.989 133.132C116.186 133.237 116.278 133.382 116.278 133.604C116.291 133.827 116.199 133.893 115.989 133.775Z" fill="white"/>
<path d="M117.104 133.395L116.592 135.243L116.96 135.453L117.051 135.007L117.55 135.295L117.654 135.859L118.035 136.082L117.536 133.657L117.104 133.395ZM117.143 134.666L117.182 134.496C117.222 134.312 117.274 134.089 117.314 133.88L117.327 133.893C117.366 134.142 117.418 134.417 117.458 134.653L117.497 134.876L117.143 134.666Z" fill="white"/>
<path d="M119.412 135.387C119.412 134.876 119.136 134.561 118.795 134.365L118.218 134.037V136.173L118.586 136.383V135.61L118.782 135.728L119.084 136.671L119.49 136.907L119.123 135.846C119.294 135.833 119.412 135.702 119.412 135.387ZM118.756 135.321L118.572 135.217V134.614L118.756 134.718C118.94 134.823 119.044 134.954 119.044 135.164C119.044 135.387 118.94 135.439 118.756 135.321Z" fill="white"/>
<path d="M119.543 135.203L119.989 135.466V137.196L120.356 137.406V135.675L120.788 135.924V135.518L119.543 134.797V135.203Z" fill="white"/>
<path d="M121.955 137.392C121.955 137.812 121.85 137.89 121.667 137.786C121.483 137.681 121.392 137.484 121.392 137.065V135.872L121.024 135.662V136.803C121.024 137.523 121.247 137.956 121.667 138.205C122.086 138.441 122.296 138.257 122.296 137.55V136.409L121.942 136.213V137.392H121.955Z" fill="white"/>
<path d="M123.87 137.969C123.87 137.458 123.594 137.143 123.253 136.947L122.677 136.606V138.742L123.044 138.952V138.179L123.24 138.297L123.555 139.241L123.961 139.476L123.607 138.415C123.752 138.415 123.87 138.271 123.87 137.969ZM123.227 137.904L123.044 137.799V137.196L123.227 137.301C123.411 137.406 123.516 137.537 123.516 137.746C123.516 137.969 123.411 138.022 123.227 137.904Z" fill="white"/>
<path d="M124.552 138.926L125.102 139.241V138.847L124.552 138.533V138.1L125.194 138.467V138.061L124.198 137.484V139.621L125.22 140.21V139.804L124.552 139.424V138.926Z" fill="white"/>
<path d="M126.112 139.411C125.968 139.254 125.863 139.149 125.863 139.018C125.863 138.9 125.941 138.874 126.073 138.939C126.204 139.018 126.295 139.136 126.4 139.306L126.584 139.109C126.44 138.847 126.256 138.638 126.073 138.533C125.745 138.336 125.496 138.48 125.496 138.834C125.496 139.149 125.653 139.424 125.823 139.608L126.033 139.843C126.177 140.001 126.269 140.093 126.269 140.237C126.269 140.368 126.191 140.407 126.046 140.315C125.915 140.237 125.771 140.066 125.653 139.87L125.443 140.079C125.6 140.381 125.823 140.617 126.033 140.735C126.413 140.958 126.636 140.774 126.636 140.42C126.636 140.119 126.518 139.87 126.322 139.66L126.112 139.411Z" fill="white"/>
<path d="M138.372 145.506L138.11 145.349C138.005 145.375 137.887 145.375 137.716 145.309V145.611L138.005 145.781V146.987L137.664 146.79V147.184L138.66 147.76V147.367L138.359 147.197V145.506H138.372Z" fill="white"/>
<path d="M139.866 146.358L139.421 146.096L138.844 147.013V147.341L139.526 147.734V148.232L139.866 148.429V147.931L140.05 148.036V147.669L139.866 147.564V146.358ZM139.526 147.053V147.394L139.198 147.197L139.408 146.869C139.447 146.778 139.499 146.686 139.539 146.594H139.552C139.539 146.712 139.526 146.909 139.526 147.053Z" fill="white"/>
<path d="M140.26 148.403C140.26 148.573 140.352 148.757 140.483 148.835C140.601 148.901 140.706 148.835 140.706 148.665C140.706 148.495 140.614 148.311 140.483 148.232C140.352 148.154 140.26 148.232 140.26 148.403Z" fill="white"/>
<path d="M140.26 147.341C140.26 147.511 140.352 147.695 140.483 147.774C140.601 147.839 140.706 147.774 140.706 147.603C140.706 147.433 140.614 147.249 140.483 147.171C140.352 147.092 140.26 147.171 140.26 147.341Z" fill="white"/>
<path d="M140.942 148.009C140.942 148.717 141.165 149.228 141.492 149.412C141.833 149.608 142.056 149.359 142.056 148.652C142.056 147.944 141.833 147.446 141.492 147.262C141.165 147.066 140.942 147.302 140.942 148.009ZM141.492 149.045C141.374 148.979 141.283 148.77 141.283 148.206C141.283 147.642 141.374 147.564 141.492 147.629C141.61 147.695 141.715 147.878 141.715 148.455C141.715 149.032 141.623 149.124 141.492 149.045Z" fill="white"/>
<path d="M142.24 148.77C142.24 149.477 142.463 149.989 142.804 150.172C143.131 150.369 143.367 150.12 143.367 149.412C143.367 148.704 143.145 148.219 142.804 148.023C142.463 147.826 142.24 148.062 142.24 148.77ZM142.791 149.805C142.673 149.74 142.568 149.53 142.568 148.966C142.568 148.39 142.659 148.324 142.791 148.39C142.909 148.455 143 148.639 143 149.215C143.013 149.779 142.922 149.871 142.791 149.805Z" fill="white"/>
<path d="M112.606 135.217V136.96L113 137.183C113.38 137.405 113.642 137.274 113.642 136.671C113.642 136.069 113.38 135.662 112.987 135.426L112.606 135.217ZM112.96 136.855L112.908 136.816V135.702L112.96 135.741C113.183 135.872 113.328 136.082 113.328 136.501C113.328 136.921 113.183 136.986 112.96 136.855Z" fill="white"/>
<path d="M114.18 137.144L114.626 137.406V137.065L114.18 136.816V136.462L114.704 136.763V136.436L113.878 135.951V137.707L114.717 138.192V137.864L114.18 137.55V137.144Z" fill="white"/>
<path d="M115.439 137.537C115.321 137.406 115.242 137.327 115.242 137.209C115.242 137.104 115.308 137.091 115.412 137.143C115.517 137.209 115.596 137.301 115.688 137.445L115.832 137.288C115.714 137.078 115.557 136.894 115.412 136.816C115.137 136.658 114.94 136.776 114.94 137.065C114.94 137.314 115.072 137.55 115.203 137.694L115.373 137.891C115.491 138.022 115.557 138.1 115.557 138.205C115.557 138.31 115.491 138.336 115.373 138.271C115.268 138.205 115.137 138.061 115.058 137.904L114.888 138.074C115.019 138.323 115.203 138.507 115.373 138.611C115.688 138.795 115.871 138.651 115.871 138.349C115.871 138.1 115.766 137.904 115.609 137.72L115.439 137.537Z" fill="white"/>
<path d="M115.937 137.484L116.304 137.694V139.109L116.606 139.28V137.864L116.96 138.074V137.733L115.937 137.143V137.484Z" fill="white"/>
<path d="M117.17 139.594L117.458 139.778V138.021L117.17 137.851V139.594Z" fill="white"/>
<path d="M118.52 139.254C118.52 139.463 118.546 139.725 118.559 139.909H118.546L118.415 139.45L118.074 138.388L117.773 138.218V139.961L118.061 140.119V139.503C118.061 139.293 118.035 139.044 118.022 138.847H118.035L118.166 139.306L118.507 140.381L118.809 140.551V138.808L118.52 138.651V139.254Z" fill="white"/>
<path d="M119.346 139.109L118.926 140.617L119.228 140.787L119.307 140.42L119.713 140.656L119.792 141.115L120.106 141.298L119.687 139.306L119.346 139.109ZM119.372 140.158L119.398 140.014C119.438 139.857 119.477 139.673 119.503 139.503H119.516C119.556 139.712 119.582 139.935 119.621 140.132L119.648 140.315L119.372 140.158Z" fill="white"/>
<path d="M120.067 139.856L120.421 140.066V141.482L120.723 141.652V140.237L121.09 140.446V140.119L120.067 139.529V139.856Z" fill="white"/>
<path d="M121.287 141.98L121.588 142.15V140.407L121.287 140.237V141.98Z" fill="white"/>
<path d="M121.824 141.403C121.824 141.98 122.073 142.452 122.414 142.662C122.768 142.871 123.004 142.662 123.004 142.085C123.004 141.521 122.768 141.049 122.414 140.84C122.073 140.656 121.824 140.84 121.824 141.403ZM122.427 142.334C122.244 142.229 122.139 141.941 122.139 141.587C122.139 141.233 122.257 141.089 122.427 141.194C122.611 141.298 122.716 141.574 122.716 141.914C122.716 142.268 122.598 142.426 122.427 142.334Z" fill="white"/>
<path d="M124.014 142.426C124.014 142.635 124.04 142.897 124.053 143.081H124.04L123.909 142.622L123.568 141.561L123.267 141.39V143.133L123.555 143.304V142.688C123.555 142.478 123.529 142.229 123.516 142.032H123.529L123.66 142.491L124.001 143.566L124.302 143.736V141.993L124.027 141.823V142.426H124.014Z" fill="white"/>
<path d="M130.177 146.463L130.399 146.594V146.895C130.373 146.908 130.308 146.895 130.255 146.869C130.006 146.725 129.888 146.45 129.888 146.083C129.888 145.729 130.032 145.598 130.229 145.716C130.347 145.781 130.399 145.873 130.478 145.991L130.636 145.847C130.544 145.676 130.413 145.493 130.229 145.388C129.875 145.178 129.587 145.349 129.587 145.925C129.587 146.515 129.875 146.987 130.229 147.197C130.413 147.302 130.57 147.289 130.675 147.236V146.437L130.19 146.161V146.463H130.177Z" fill="white"/>
<path d="M131.16 145.939L130.74 147.446L131.042 147.616L131.121 147.249L131.527 147.485L131.606 147.944L131.921 148.128L131.501 146.135L131.16 145.939ZM131.186 146.974L131.226 146.83C131.265 146.673 131.304 146.489 131.331 146.332H131.344C131.383 146.529 131.409 146.765 131.449 146.961L131.475 147.145L131.186 146.974Z" fill="white"/>
<path d="M131.868 146.686L132.235 146.896V148.311L132.537 148.482V147.066L132.891 147.276V146.935L131.868 146.345V146.686Z" fill="white"/>
<path d="M133.389 148.245L133.835 148.494V148.167L133.389 147.905V147.564L133.914 147.865V147.524L133.088 147.053V148.809L133.94 149.294V148.953L133.389 148.639V148.245Z" fill="white"/>
<path d="M138.359 150.421L138.713 150.618V152.046L139.014 152.217V150.788L139.368 150.998V150.67L138.359 150.08V150.421Z" fill="white"/>
<path d="M139.578 152.532L139.866 152.702V150.959L139.578 150.788V152.532Z" fill="white"/>
<path d="M140.876 152.322L140.797 152.584H140.784L140.706 152.23L140.483 151.313L140.168 151.129V152.873L140.443 153.03V152.388C140.443 152.217 140.417 151.942 140.404 151.772H140.417L140.522 152.23L140.719 153.03L140.837 153.096L141.046 152.532L141.151 152.191H141.164C141.151 152.348 141.125 152.584 141.125 152.768V153.41L141.401 153.567V151.824L141.086 151.641L140.876 152.322Z" fill="white"/>
<path d="M142.004 153.2L142.45 153.462V153.134L142.004 152.872V152.518L142.528 152.82V152.492L141.702 152.02V153.764L142.554 154.249V153.921L142.004 153.606V153.2Z" fill="white"/>
<path opacity="0.5" d="M29.8301 115.949L62.2431 97.2311L29.8301 78.1598V115.949Z" fill="white"/>
<path opacity="0.5" d="M29.8301 122.66V131.691L75.8403 105.24L67.0946 100.089L29.8301 122.66Z" fill="white"/>
<path opacity="0.5" d="M29.8301 135.584V140.787L83.6551 109.84L79.079 107.153L29.8301 135.584Z" fill="white"/>
<path opacity="0.5" d="M91.5354 151.64L123.948 132.923L91.5354 113.838V151.64Z" fill="white"/>
<path opacity="0.5" d="M91.5354 158.338V167.369L137.546 140.918L128.8 135.767L91.5354 158.338Z" fill="white"/>
<path opacity="0.5" d="M91.5354 171.262V176.479L145.36 145.519L140.784 142.832L91.5354 171.262Z" fill="white"/>
<path d="M88.2574 175.771L91.5355 177.685V92.7614L88.2574 91.1099V175.771Z" fill="#B5ACB4"/>
<path d="M164.884 262.346L242.836 217.335V89.7468L164.884 133.631V262.346Z" fill="#9198A9"/>
<path d="M0.15741 67.2281L140.719 148.861L242.836 89.7468L102.064 8.51984L0.15741 67.2281Z" fill="#F98A70"/>
<path d="M0.15741 58.7083L140.719 140.342L242.836 81.2269L102.064 0L0.15741 58.7083Z" fill="#FEB232"/>
<path d="M147.445 230.206V233.418L164.884 223.443V220.297L147.445 230.206Z" fill="#646D84"/>
<path d="M140.719 148.861L242.836 89.7468V81.2269L140.719 140.342V148.861Z" fill="#FFA000"/>
<path d="M0.15741 67.2281L140.719 148.861V140.341L0.15741 58.7083V67.2281Z" fill="#FFA000"/>
<path d="M73.5588 162.65L85.5302 169.61V152.007L73.5588 145.047V162.65Z" fill="white"/>
<path d="M143 201.698L154.985 208.645V191.041L143 184.094V201.698Z" fill="white"/>
<path d="M43.1781 149.635L69.5727 164.918V156.503L43.1781 141.22V149.635Z" fill="#FFA000"/>
<path d="M53.4973 138.428C53.1826 138.297 52.9335 138.533 52.9335 138.965C52.9466 139.385 53.2088 139.83 53.5366 139.961C53.8513 140.093 54.1004 139.857 54.1004 139.424C54.0742 139.005 53.812 138.559 53.4973 138.428Z" fill="#FFA000"/>
<path d="M55.3592 136.829C55.0445 136.698 54.7954 136.934 54.7954 137.366C54.8085 137.786 55.0708 138.231 55.3986 138.362C55.7133 138.493 55.9624 138.257 55.9624 137.825C55.9493 137.405 55.687 136.96 55.3592 136.829Z" fill="#FFA000"/>
<path d="M55.3592 142.727C55.0445 142.596 54.7954 142.832 54.7954 143.264C54.8085 143.684 55.0708 144.13 55.3986 144.261C55.7133 144.392 55.9624 144.156 55.9624 143.723C55.9493 143.304 55.687 142.858 55.3592 142.727Z" fill="#FFA000"/>
<path d="M59.9485 142.085C59.6338 141.954 59.3846 142.19 59.3846 142.622C59.3978 143.042 59.66 143.487 59.9878 143.618C60.3025 143.749 60.5516 143.514 60.5516 143.081C60.5385 142.662 60.2763 142.203 59.9485 142.085Z" fill="#FFA000"/>
<path d="M57.9292 137.838C57.6145 137.707 57.3654 137.943 57.3654 138.376C57.3785 138.795 57.6407 139.241 57.9685 139.372C58.2832 139.503 58.5323 139.267 58.5323 138.835C58.5192 138.415 58.2439 137.969 57.9292 137.838Z" fill="#FFA000"/>
<path d="M57.9292 144.025C57.6145 143.894 57.3654 144.13 57.3654 144.562C57.3785 144.982 57.6407 145.427 57.9685 145.558C58.2832 145.689 58.5323 145.453 58.5323 145.021C58.5192 144.601 58.2439 144.156 57.9292 144.025Z" fill="#FFA000"/>
<path d="M107.742 187.279L134.123 202.563V194.148L107.742 178.864V187.279Z" fill="#FFA000"/>
<path d="M118.048 176.073C117.733 175.941 117.484 176.177 117.484 176.61C117.497 177.029 117.759 177.475 118.087 177.606C118.402 177.737 118.651 177.501 118.651 177.069C118.638 176.649 118.363 176.19 118.048 176.073Z" fill="#FFA000"/>
<path d="M119.923 174.473C119.608 174.342 119.359 174.578 119.359 175.011C119.372 175.43 119.634 175.876 119.962 176.007C120.277 176.138 120.526 175.902 120.526 175.47C120.513 175.05 120.238 174.591 119.923 174.473Z" fill="#FFA000"/>
<path d="M119.923 180.372C119.608 180.241 119.359 180.477 119.359 180.909C119.372 181.329 119.634 181.774 119.962 181.905C120.277 182.036 120.526 181.8 120.526 181.368C120.513 180.948 120.238 180.503 119.923 180.372Z" fill="#FFA000"/>
<path d="M124.512 179.73C124.198 179.598 123.948 179.834 123.948 180.267C123.962 180.686 124.224 181.132 124.552 181.263C124.866 181.394 125.115 181.158 125.115 180.726C125.102 180.293 124.827 179.847 124.512 179.73Z" fill="#FFA000"/>
<path d="M122.493 175.483C122.178 175.352 121.929 175.588 121.929 176.02C121.942 176.44 122.204 176.885 122.532 177.016C122.847 177.148 123.096 176.912 123.096 176.479C123.07 176.06 122.808 175.614 122.493 175.483Z" fill="#FFA000"/>
<path d="M122.493 181.669C122.178 181.538 121.929 181.774 121.929 182.207C121.942 182.626 122.204 183.072 122.532 183.203C122.847 183.334 123.096 183.098 123.096 182.666C123.07 182.246 122.808 181.801 122.493 181.669Z" fill="#FFA000"/>
<path d="M175.597 155.415L230.078 124.01V110.063L175.597 141.547V155.415Z" fill="white"/>
<path d="M175.597 256.172L230.078 224.701V129.895L175.597 161.3V256.172Z" fill="#464D5D"/>
<path d="M193.6 245.765L195.619 244.598V149.805L193.6 150.919V245.765Z" fill="#B0B5C1"/>
<path d="M199.815 185.457V196.376L211.563 189.547L225.423 149.805V142.347L212.638 149.727L199.815 185.457Z" fill="#9DC3FE"/>
<path d="M219.103 185.182L225.423 167.041V161.72L216.454 186.716L219.103 185.182Z" fill="#9DC3FE"/>
<path d="M225.423 181.512V172.848L221.489 183.793L225.423 181.512Z" fill="#9DC3FE"/>
<path d="M199.815 174.028V180.267L209.911 151.312L207.276 152.82L199.815 174.028Z" fill="#9DC3FE"/>
<path d="M199.815 174.028L207.276 152.82L199.815 157.132V174.028Z" fill="#0E89C6"/>
<path opacity="0.5" d="M199.815 174.028L207.276 152.82L199.815 157.132V174.028Z" fill="#C4DBFE"/>
<path d="M199.815 180.267V185.458L212.638 149.727L209.911 151.313L199.815 180.267Z" fill="#0E89C6"/>
<path opacity="0.5" d="M199.815 180.267V185.458L212.638 149.727L209.911 151.313L199.815 180.267Z" fill="#C4DBFE"/>
<path d="M216.454 186.716L225.423 161.72V149.805L211.563 189.547L216.454 186.716Z" fill="#0E89C6"/>
<path opacity="0.5" d="M216.454 186.716L225.423 161.72V149.805L211.563 189.547L216.454 186.716Z" fill="#C4DBFE"/>
<path d="M221.489 183.793L225.423 172.848V167.042L219.103 185.182L221.489 183.793Z" fill="#0E89C6"/>
<path opacity="0.5" d="M221.489 183.793L225.423 172.848V167.042L219.103 185.182L221.489 183.793Z" fill="#C4DBFE"/>
<path d="M20.5598 70.3739L22.4217 71.4487L124.25 12.6225L122.388 11.5345L20.5598 70.3739Z" fill="#FFA000"/>
<path d="M39.8083 81.3187L41.6702 82.3935L143.499 23.5672L141.637 22.4662L39.8083 81.3187Z" fill="#FFA000"/>
<path d="M59.9878 93.063L61.8497 94.1378L163.678 35.3115L161.816 34.2236L59.9878 93.063Z" fill="#FFA000"/>
<path d="M79.2363 104.008L81.0982 105.083L182.927 46.2562L181.065 45.1552L79.2363 104.008Z" fill="#FFA000"/>
<path d="M97.5406 115.057L99.4026 116.132L201.231 57.3058L199.369 56.2179L97.5406 115.057Z" fill="#FFA000"/>
<path d="M116.789 125.989L118.651 127.077L220.48 68.2504L218.618 67.1494L116.789 125.989Z" fill="#FFA000"/>
<path d="M26.6437 73.8999L121.85 128.755V95.8548L26.6437 41.1181V73.8999Z" fill="white"/>
<path d="M121.85 128.597L125.037 126.985V94.2557L121.85 95.8548V128.597Z" fill="#464D5D"/>
<path d="M26.6437 41.1181L121.85 95.8548L125.037 94.2557L30.0004 39.152L26.6437 41.1181Z" fill="#CFD3DB"/>
<path d="M40.123 63.9775V63.8858C41.3424 64.161 41.8931 63.1255 41.8931 61.8803C41.8931 59.1933 40.2017 57.4238 38.012 56.1655L34.4193 54.0945V68.0801L38.3135 70.3346C40.595 71.6585 42.4045 71.4225 42.4045 68.5782C42.4045 66.717 41.6178 65.2096 40.123 63.9775ZM36.8056 57.9219L37.9333 58.5772C39.0216 59.2064 39.5723 59.9535 39.5723 61.0021C39.5723 62.0507 39.0609 62.4177 37.8939 61.7492L36.8056 61.1201V57.9219ZM38.13 67.7787L36.8056 67.0184V63.3483L38.13 64.1086C39.4281 64.8557 40.0968 65.7732 40.0968 67.0053C40.0837 68.2767 39.4149 68.5258 38.13 67.7787Z" fill="#EE2D24"/>
<path d="M50.1405 71.0031C50.1405 73.7556 49.4456 74.293 48.2786 73.6115C47.0985 72.9299 46.4561 71.6191 46.4561 68.8666V61.0414L44.0959 59.6782V67.1888C44.0959 71.8813 45.5644 74.7649 48.2786 76.3378C50.9928 77.9107 52.422 76.6917 52.422 71.9992V64.4887L50.1405 63.1648V71.0031Z" fill="#EE2D24"/>
<path d="M58.3881 73.3231C57.4703 72.3007 56.7753 71.606 56.7753 70.7409C56.7753 69.9414 57.3129 69.7841 58.1128 70.2428C58.9519 70.7278 59.6076 71.5143 60.3025 72.6153L61.4957 71.3046C60.591 69.5875 59.3191 68.2112 58.1128 67.5034C55.9362 66.2451 54.3758 67.1888 54.3758 69.5088C54.3758 71.5405 55.4117 73.3493 56.5 74.5552L57.8505 76.1019C58.7684 77.1505 59.3715 77.7665 59.3715 78.6447C59.3715 79.4836 58.8864 79.7195 57.903 79.1559C57.0376 78.6578 56.0673 77.4913 55.333 76.2067L53.9694 77.583C55.0445 79.536 56.5 81.0565 57.8636 81.8429C60.3549 83.2848 61.8104 82.1051 61.8104 79.7851C61.8104 77.8058 61.0105 76.2067 59.7387 74.7911L58.3881 73.3231Z" fill="#EE2D24"/>
<path d="M66.0587 75.027L68.9565 76.6917V88.0296L71.3298 89.3928V78.068L74.2013 79.7195V77.0587L66.0587 72.3662V75.027Z" fill="#EE2D24"/>
<path d="M75.8271 91.9881L78.2004 93.3644V79.3787L75.8271 78.0024V91.9881Z" fill="#EE2D24"/>
<path d="M85.1236 94.8849C83.5895 94.0067 82.5798 91.7391 82.5798 88.8685C82.5798 86.0635 83.7206 85.0281 85.1891 85.8669C85.9234 86.2995 86.4217 86.9811 86.9593 87.9379L88.2574 86.732C87.5493 85.3557 86.4479 83.8746 85.1498 83.1144C82.4487 81.5546 80.141 82.9309 80.141 87.5578C80.141 92.2634 82.3569 96.0121 85.0842 97.5719C86.3823 98.319 87.5493 98.2797 88.4147 97.4408L87.1166 94.78C86.6052 95.2519 85.989 95.396 85.1236 94.8849Z" fill="#EE2D24"/>
<path d="M98.1438 90.874L95.5476 89.3798L92.4138 93.2989L92.3614 93.2727V87.5447L89.975 86.1685V100.154L92.3614 101.53V97.7817L93.5808 96.3398L96.1245 103.706L98.7338 105.214L94.9707 94.6228L98.1438 90.874Z" fill="#EE2D24"/>
<path d="M102.222 101.347L105.788 103.405V100.77L102.222 98.7123V95.8942L106.418 98.319V95.6582L99.8353 91.8571V105.856L106.575 109.736V107.075L102.222 104.558V101.347Z" fill="#EE2D24"/>
<path d="M107.781 99.1054L110.679 100.783V112.108L113.039 113.471V102.146L115.924 103.811V101.15L107.781 96.4446V99.1054Z" fill="#EE2D24"/>
</svg>
