<svg width="256" height="266" viewBox="0 0 256 266" fill="none" xmlns="http://www.w3.org/2000/svg">
<path d="M130.819 100.157V100.568L130.793 109.66L130.678 146.349L114.664 155.672L112.571 156.892L112.558 156.905C112.352 156.481 112.121 156.057 111.89 155.621C111.826 155.518 111.774 155.415 111.71 155.3C110.426 152.937 109.039 150.638 107.55 148.404C107.267 147.98 106.997 147.569 106.702 147.158C106.599 146.991 106.484 146.837 106.368 146.683C105.97 146.118 105.572 145.553 105.148 145.001C104.737 144.448 104.326 143.896 103.89 143.344V143.331C103.466 142.792 103.042 142.265 102.606 141.739C102.169 141.187 101.707 140.66 101.231 140.121C100.872 139.697 100.487 139.273 100.101 138.849C100.037 138.785 99.9858 138.708 99.9216 138.657C99.485 138.156 99.0227 137.681 98.5604 137.206L98.5218 137.167C98.0595 136.679 97.5972 136.217 97.1092 135.755C96.6213 135.292 96.1461 134.83 95.6581 134.38C94.6822 133.482 93.7062 132.621 92.6917 131.812C92.3963 131.581 92.1138 131.35 91.8184 131.119C90.9452 130.438 90.0591 129.783 89.1859 129.167C88.0045 128.345 86.7973 127.587 85.5645 126.881C85.4489 126.817 85.3205 126.74 85.205 126.688L88.0815 125.019L130.819 100.157Z" fill="url(#paint0_linear_52_3142)"/>
<path d="M201.564 187.263L123.769 232.491L120.777 234.238L49.8773 193.311L112.558 156.892L112.571 156.879L114.664 155.659L130.677 146.336L161.78 164.289L164.747 166.01L201.564 187.263Z" fill="url(#paint1_linear_52_3142)"/>
<path d="M52.7153 133.199C53.0235 132.506 53.3574 131.851 53.7298 131.221C53.3703 131.851 53.0364 132.518 52.7153 133.199Z" fill="url(#paint2_linear_52_3142)"/>
<path d="M141.169 77.4404C135.403 80.7921 131.615 87.5469 130.934 97.0754C130.857 98.0642 130.819 99.1044 130.819 100.157L88.1073 124.993L85.2307 126.663C83.5741 125.725 81.9432 124.929 80.3509 124.274C79.3235 123.85 78.3219 123.491 77.3202 123.196C76.6524 123.003 75.9975 122.823 75.3426 122.669C74.6876 122.515 74.0584 122.386 73.4163 122.297C71.7597 122.04 70.1674 121.95 68.6392 122.027C68.2796 122.04 67.9329 122.065 67.5862 122.104C67.2394 122.13 66.8927 122.168 66.546 122.245C66.2121 122.284 65.8911 122.348 65.57 122.425C64.196 122.72 62.8989 123.144 61.6661 123.735C61.4864 123.799 61.3066 123.902 61.1268 124.005C60.947 124.082 60.7544 124.184 60.5746 124.3C63.9134 122.361 67.3422 120.357 70.8737 118.316C70.8737 118.316 70.8737 118.316 70.8865 118.303C103.723 99.22 110.144 95.4574 141.169 77.4404Z" fill="url(#paint3_linear_52_3142)"/>
<path d="M120.905 188.059L201.705 141.084L201.577 187.263L120.776 234.238L120.905 188.059Z" fill="#D3ABC1"/>
<path d="M166.377 79.8931C166.339 79.9059 166.288 79.9444 166.249 79.9573C161.998 82.4357 155.539 86.1855 147.808 90.6801C146.588 91.3864 145.381 92.0927 144.161 92.8119C143.468 93.2228 142.749 93.6209 142.03 94.0318C140.81 94.751 139.602 95.4444 138.383 96.1764C137.034 96.9469 135.699 97.7302 134.35 98.5136C133.182 99.1942 132.013 99.8876 130.819 100.568C130.626 100.684 130.421 100.799 130.215 100.915C126.645 102.983 123.062 105.063 119.492 107.143C118.028 107.978 150.479 89.152 149.015 90.0124C148.283 90.4361 147.552 90.8728 146.82 91.2965C144.611 92.5807 142.402 93.852 140.193 95.149C137.265 96.8442 134.35 98.5393 131.422 100.247C130.703 100.671 129.984 101.082 129.265 101.506C126.44 103.149 123.602 104.78 120.777 106.437C119.402 107.233 118.041 108.016 116.667 108.825C115.344 109.596 114.022 110.354 112.686 111.137C109.013 113.269 105.354 115.388 101.681 117.532C101.116 117.866 100.551 118.2 100.011 118.508C99.6647 118.701 99.3308 118.906 98.9712 119.099L96.8267 120.332L93.8602 122.052L91.1506 123.632C90.2902 124.133 89.4684 124.608 88.7107 125.045L88.4282 125.199L88.3254 125.263C87.8246 125.558 87.3366 125.828 86.8872 126.098L86.5533 126.29C86.2194 126.483 85.8984 126.675 85.5902 126.842C85.4746 126.778 85.3462 126.701 85.2306 126.65C83.574 125.712 81.9431 124.916 80.3507 124.261C79.3234 123.837 78.3217 123.478 77.3201 123.183C76.6523 122.99 75.9974 122.81 75.3425 122.656C74.6875 122.502 74.0583 122.374 73.4162 122.284C71.7596 122.027 70.1672 121.937 68.6391 122.014C68.2795 122.027 67.9328 122.052 67.5861 122.091C67.2393 122.117 66.8926 122.155 66.5459 122.232C66.212 122.271 65.8909 122.335 65.5699 122.412C64.1958 122.707 62.8988 123.131 61.666 123.722C61.4862 123.786 61.3064 123.889 61.1267 123.992C60.9469 124.069 60.7542 124.171 60.5745 124.287C63.9133 122.348 67.3421 120.345 70.8735 118.303C70.8735 118.303 70.8735 118.303 70.8864 118.29C103.736 99.207 110.169 95.4316 141.182 77.4146C146.948 74.0501 154.704 74.1271 163.321 78.2365C164.31 78.7502 165.337 79.2895 166.377 79.8931Z" fill="#D3ABC1"/>
<path d="M123.884 189.78L204.684 142.805L204.543 192.399L123.743 239.375L123.884 189.78Z" fill="#FFA000"/>
<path d="M58.2631 120.781L139.063 73.8061C146.049 69.7482 155.732 70.3132 166.39 76.4644L85.5903 123.439C74.9316 117.288 65.249 116.723 58.2631 120.781Z" fill="#FFA000"/>
<path d="M173.505 84.8371C159.263 93.1072 145.035 101.377 130.793 109.66C128.417 111.047 126.042 112.421 123.666 113.795C102.875 125.879 115.961 118.29 95.1702 130.387C94.3483 130.862 93.5264 131.337 92.7046 131.812C92.4092 131.581 92.1267 131.35 91.8313 131.119C90.9581 130.438 90.072 129.783 89.1988 129.167C88.0173 128.345 86.8102 127.587 85.5774 126.881C85.8856 126.701 86.2066 126.521 86.5405 126.329C86.6561 126.265 86.7588 126.2 86.8744 126.136C87.3239 125.866 87.8119 125.584 88.3127 125.301C88.3512 125.276 88.3897 125.25 88.4283 125.237C88.5053 125.173 88.608 125.122 88.6979 125.07C89.4556 124.634 90.2775 124.146 91.1379 123.658C91.9983 123.157 92.91 122.63 93.8475 122.078C94.7978 121.526 95.7866 120.961 96.8139 120.357C97.8412 119.767 98.9071 119.15 99.9987 118.508C100.551 118.2 101.103 117.866 101.668 117.532C105.071 115.555 108.77 113.423 112.673 111.137C113.97 110.379 115.306 109.609 116.654 108.825C118.003 108.042 119.377 107.259 120.764 106.437C123.525 104.832 126.363 103.188 129.252 101.506C129.971 101.082 130.69 100.671 131.41 100.247C134.312 98.5649 137.24 96.857 140.18 95.149C142.389 93.8649 144.598 92.5935 146.807 91.2965C147.539 90.8727 148.271 90.449 149.003 90.0123C150.467 89.1648 118.028 107.991 119.48 107.143C123.114 105.024 126.709 102.944 130.202 100.915C130.408 100.799 130.613 100.684 130.806 100.568C132 99.8876 133.182 99.1942 134.337 98.5136C135.712 97.7174 137.047 96.9469 138.37 96.1764C139.603 95.4572 140.823 94.751 142.017 94.0318C142.736 93.6209 143.442 93.2228 144.149 92.8118C145.394 92.0927 146.614 91.3864 147.796 90.6801C155.526 86.1984 161.973 82.4357 166.236 79.9573C166.275 79.9316 166.326 79.8931 166.365 79.8931C168.817 81.3057 171.206 82.9622 173.505 84.8371Z" fill="#D3ABC1"/>
<path d="M201.705 141.084L161.78 164.289L123.781 186.389L120.905 188.059V187.93C120.905 187.378 120.892 186.826 120.866 186.274C120.841 185.413 120.802 184.553 120.712 183.667C120.674 183.23 120.635 182.768 120.584 182.331C120.52 181.702 120.43 181.06 120.353 180.431C120.263 179.789 120.16 179.147 120.045 178.517C119.98 178.055 119.878 177.593 119.788 177.131C119.749 176.925 119.711 176.707 119.659 176.488C119.557 175.962 119.441 175.448 119.313 174.922C119.146 174.19 118.966 173.458 118.76 172.713C118.581 172.071 118.401 171.429 118.208 170.8C118.08 170.337 117.926 169.875 117.784 169.4C117.72 169.22 117.669 169.04 117.605 168.848C117.425 168.295 117.232 167.73 117.04 167.191C117.014 167.101 116.975 167.011 116.95 166.934C116.487 165.65 115.999 164.366 115.46 163.082C115.19 162.44 114.921 161.81 114.638 161.181C113.996 159.743 113.303 158.305 112.571 156.892C112.365 156.468 112.134 156.044 111.903 155.608C111.839 155.505 111.787 155.402 111.723 155.287C110.439 152.924 109.052 150.625 107.562 148.391C107.28 147.967 107.01 147.556 106.715 147.145C106.612 146.978 106.496 146.824 106.381 146.67C105.983 146.105 105.585 145.54 105.161 144.988C104.75 144.436 104.339 143.883 103.902 143.331V143.318C103.479 142.779 103.055 142.252 102.618 141.726C102.182 141.174 101.719 140.647 101.244 140.108C100.885 139.684 100.499 139.26 100.114 138.837C100.05 138.772 99.9986 138.695 99.9344 138.644C99.4977 138.143 99.0354 137.668 98.5731 137.193L98.5346 137.154C98.0723 136.666 97.61 136.204 97.122 135.742C96.634 135.279 96.1589 134.817 95.6709 134.368C94.6949 133.469 93.719 132.608 92.7045 131.799C93.5263 131.324 94.3482 130.849 95.1701 130.374C115.961 118.29 102.875 125.879 123.666 113.782C126.042 112.395 128.417 111.021 130.793 109.647C145.035 101.364 159.263 93.0943 173.505 84.8242C189.621 97.9613 201.756 121.423 201.705 141.084Z" fill="#D3ABC1"/>
<path d="M111.723 155.287C110.439 152.924 109.052 150.625 107.562 148.391C109.065 150.625 110.452 152.924 111.723 155.287Z" fill="url(#paint4_linear_52_3142)"/>
<path d="M120.905 187.931V188.059L120.764 234.238L49.8773 193.324L112.558 156.905C112.352 156.481 112.121 156.057 111.89 155.621C112.121 156.045 112.34 156.456 112.571 156.892C113.303 158.305 113.983 159.756 114.625 161.194C114.921 161.836 115.178 162.465 115.447 163.095C115.987 164.379 116.487 165.65 116.937 166.947C116.975 167.024 117.001 167.114 117.027 167.204C117.219 167.756 117.412 168.308 117.592 168.861C117.656 169.04 117.707 169.22 117.772 169.413C117.926 169.875 118.08 170.337 118.195 170.813C118.388 171.455 118.568 172.097 118.748 172.726C118.94 173.471 119.133 174.203 119.3 174.935C119.415 175.461 119.531 175.975 119.646 176.502C119.698 176.72 119.736 176.925 119.775 177.144C119.865 177.606 119.955 178.068 120.032 178.531C120.147 179.173 120.25 179.815 120.34 180.444C120.417 181.086 120.507 181.715 120.571 182.344C120.622 182.794 120.661 183.243 120.699 183.68C120.777 184.566 120.828 185.427 120.854 186.287C120.892 186.826 120.905 187.391 120.905 187.931Z" fill="#464D5D"/>
<path d="M85.5902 123.439L166.39 76.4644C187.566 88.6897 204.761 118.457 204.684 142.805L123.884 189.78C123.961 165.432 106.766 135.678 85.5902 123.439Z" fill="#FEB232"/>
<path d="M123.781 186.39C123.191 176.36 119.852 165.599 114.664 155.659C109.643 146.002 102.875 137.103 95.1701 130.374C92.9999 128.473 90.7526 126.74 88.4411 125.212C88.4411 125.212 88.4411 125.212 88.4282 125.199C88.3255 125.135 88.2227 125.057 88.1072 124.993C87.2853 124.441 86.4506 123.94 85.5902 123.452C83.2787 122.117 80.9928 121.038 78.7841 120.216C76.5881 119.394 74.4307 118.829 72.376 118.508C71.8495 118.444 71.3359 118.367 70.8479 118.328C69.1913 118.149 67.5989 118.149 66.0708 118.316C65.724 118.354 65.3901 118.393 65.0434 118.444C64.9792 118.457 64.9022 118.457 64.8379 118.482C64.5169 118.547 64.1702 118.598 63.8491 118.662C63.4896 118.726 63.13 118.829 62.7833 118.919C62.0898 119.099 61.3964 119.343 60.7286 119.6C60.4974 119.69 60.2535 119.792 60.0223 119.908C59.8939 119.959 59.7526 120.011 59.6242 120.088C59.4701 120.152 59.316 120.229 59.1876 120.293C59.0592 120.357 58.9179 120.422 58.7895 120.486C58.6739 120.55 58.5455 120.627 58.4299 120.691C51.4312 124.659 47.0907 133.212 47.065 145.399L46.9109 195.006L123.756 239.375L123.781 232.479L123.897 189.767C123.884 188.663 123.846 187.52 123.781 186.39ZM49.8773 193.311L50.0186 147.132C50.0186 146.542 50.0314 145.951 50.0571 145.36C50.07 145.026 50.0956 144.68 50.1213 144.346C50.1213 144.256 50.1342 144.166 50.147 144.076C50.1727 143.652 50.2112 143.229 50.2497 142.818C50.3011 142.355 50.3525 141.893 50.4167 141.443C50.468 141.122 50.5066 140.801 50.5708 140.493C50.5965 140.301 50.635 140.108 50.6735 139.915C50.712 139.62 50.7634 139.363 50.8405 139.081C51.0202 138.169 51.2514 137.296 51.5211 136.461C51.5981 136.127 51.7137 135.78 51.8421 135.446C51.8806 135.331 51.9063 135.215 51.9705 135.1C52.0476 134.817 52.1503 134.547 52.2787 134.291C52.42 133.918 52.5869 133.559 52.741 133.199C53.0492 132.518 53.396 131.851 53.7555 131.221C53.9353 130.9 54.1279 130.579 54.3206 130.284C54.5004 129.989 54.7058 129.719 54.9113 129.436C55.1039 129.141 55.3222 128.884 55.5405 128.615C55.7203 128.396 55.9001 128.178 56.0927 127.96L56.478 127.536C56.5422 127.472 56.6064 127.395 56.6706 127.33C56.8119 127.189 56.9403 127.048 57.0815 126.92C58.1474 125.879 59.316 125.019 60.5745 124.3C60.7543 124.197 60.9469 124.094 61.1267 124.004C61.3065 123.902 61.4734 123.812 61.666 123.735C62.8988 123.144 64.1959 122.707 65.5699 122.425C65.891 122.361 66.212 122.284 66.5459 122.245C66.8798 122.181 67.2265 122.13 67.5861 122.104C67.9328 122.052 68.2795 122.04 68.6391 122.027C70.1673 121.95 71.7725 122.04 73.4162 122.296C74.0583 122.386 74.7004 122.515 75.3425 122.669C75.9846 122.823 76.6523 122.99 77.3201 123.195C78.3218 123.504 79.3363 123.863 80.3508 124.274C81.9431 124.929 83.574 125.712 85.2306 126.663C85.3462 126.727 85.4746 126.791 85.5902 126.855C86.8102 127.562 88.0173 128.319 89.2116 129.141C90.0976 129.758 90.9837 130.412 91.8441 131.093C92.1395 131.324 92.422 131.555 92.7173 131.787C93.7318 132.596 94.7078 133.456 95.6838 134.355C96.1718 134.791 96.6469 135.267 97.1349 135.729C97.61 136.191 98.0723 136.654 98.5475 137.142L98.586 137.18C99.0483 137.655 99.5106 138.13 99.9472 138.631C100.011 138.695 100.076 138.76 100.127 138.824C100.512 139.248 100.898 139.658 101.257 140.095C101.732 140.634 102.182 141.161 102.631 141.713C103.068 142.24 103.492 142.766 103.915 143.306V143.318C104.339 143.871 104.763 144.41 105.174 144.975C105.598 145.527 105.996 146.092 106.394 146.657C106.509 146.811 106.625 146.965 106.728 147.132C107.023 147.543 107.293 147.954 107.575 148.378C109.078 150.612 110.452 152.911 111.736 155.274C111.8 155.39 111.852 155.492 111.916 155.595C112.147 156.019 112.365 156.43 112.596 156.866C113.328 158.279 114.009 159.73 114.651 161.168C114.946 161.798 115.216 162.44 115.473 163.069C116.012 164.353 116.513 165.624 116.963 166.921C117.001 166.999 117.027 167.088 117.052 167.178C117.245 167.731 117.451 168.283 117.617 168.835C117.682 169.015 117.733 169.194 117.797 169.387C117.951 169.849 118.105 170.312 118.221 170.787C118.414 171.429 118.606 172.071 118.773 172.7C118.966 173.445 119.158 174.177 119.325 174.909C119.454 175.436 119.569 175.949 119.672 176.476C119.724 176.694 119.762 176.9 119.801 177.118C119.89 177.58 119.98 178.042 120.057 178.505C120.173 179.147 120.276 179.789 120.366 180.418C120.443 181.047 120.533 181.689 120.597 182.319C120.648 182.755 120.687 183.218 120.725 183.654C120.802 184.54 120.854 185.401 120.879 186.261C120.905 186.813 120.918 187.378 120.918 187.918V188.046L120.777 234.225L49.8773 193.311Z" fill="#B0B5C1"/>
<path d="M112.558 156.892L49.8773 193.311L50.0186 147.132C50.0186 146.529 50.0314 145.951 50.0571 145.36C50.0828 145.026 50.0956 144.679 50.1213 144.346C50.1213 144.256 50.1342 144.166 50.147 144.076C50.1727 143.652 50.2112 143.241 50.2497 142.817C50.3011 142.355 50.3525 141.893 50.4167 141.443C50.468 141.122 50.5066 140.801 50.5708 140.493C50.5965 140.3 50.635 140.108 50.6735 139.915C50.7249 139.633 50.7762 139.363 50.8404 139.08C51.0202 138.169 51.2514 137.295 51.5211 136.461C51.611 136.114 51.7265 135.78 51.8421 135.446C51.8806 135.331 51.9063 135.215 51.9705 135.1C52.0604 134.817 52.1503 134.547 52.2787 134.291C52.42 133.918 52.5869 133.559 52.741 133.199C53.0492 132.518 53.396 131.851 53.7555 131.221C53.9353 130.9 54.1279 130.579 54.3206 130.284C54.5132 129.989 54.7058 129.719 54.9113 129.436C55.1039 129.141 55.3222 128.884 55.5405 128.614C55.7203 128.396 55.9001 128.178 56.0927 127.96C56.2211 127.818 56.3367 127.677 56.478 127.536C56.5422 127.472 56.6064 127.395 56.6706 127.33C56.799 127.189 56.9403 127.061 57.0815 126.919C58.1474 125.879 59.316 125.019 60.5745 124.3C60.7543 124.197 60.9469 124.094 61.1267 124.004C61.3065 123.902 61.4862 123.825 61.666 123.735C62.8988 123.144 64.1959 122.707 65.5699 122.425C65.891 122.361 66.2248 122.296 66.5459 122.245C66.8926 122.181 67.2265 122.142 67.5861 122.104C67.9328 122.065 68.2924 122.04 68.6391 122.027C70.1673 121.95 71.7725 122.04 73.4162 122.296C74.0455 122.399 74.7004 122.515 75.3425 122.669C75.9846 122.823 76.6523 122.99 77.3201 123.195C78.3218 123.503 79.3363 123.863 80.3507 124.274C81.9431 124.929 83.574 125.712 85.2306 126.663C85.3462 126.727 85.4746 126.791 85.5902 126.855C86.8101 127.561 88.0173 128.319 89.2115 129.141C90.1105 129.77 90.9837 130.425 91.8441 131.093C92.1395 131.324 92.422 131.555 92.7173 131.786C93.7318 132.595 94.7078 133.456 95.6838 134.355C96.1718 134.804 96.6597 135.267 97.1349 135.729C97.5972 136.191 98.0723 136.666 98.5475 137.141L98.586 137.18C99.0355 137.655 99.4978 138.13 99.9472 138.631C100.011 138.695 100.076 138.759 100.127 138.824C100.512 139.247 100.885 139.658 101.257 140.095C101.732 140.634 102.182 141.161 102.631 141.713C103.055 142.24 103.492 142.766 103.915 143.305V143.318C104.339 143.87 104.763 144.41 105.174 144.975C105.598 145.527 105.996 146.092 106.394 146.657C106.509 146.811 106.625 146.965 106.728 147.132C107.01 147.543 107.28 147.954 107.575 148.378C109.065 150.612 110.452 152.911 111.736 155.274C111.8 155.389 111.852 155.492 111.916 155.595C112.121 156.044 112.352 156.468 112.558 156.892Z" fill="#646D84"/>
<path d="M166.108 185.298L163.655 183.872C165.504 182.807 167.02 180.187 167.02 178.055L169.472 179.481C169.472 181.612 167.97 184.219 166.108 185.298Z" fill="url(#paint5_linear_52_3142)"/>
<path d="M163.963 186.531L161.51 185.105L163.655 183.86L166.108 185.298L163.963 186.531Z" fill="url(#paint6_linear_52_3142)"/>
<path d="M169.472 179.481L167.02 178.042L167.007 175.59L169.459 177.015L169.472 179.481Z" fill="url(#paint7_linear_52_3142)"/>
<path d="M161.588 186.762L159.135 185.336C159.751 185.696 160.599 185.645 161.523 185.105L163.976 186.531C163.039 187.07 162.191 187.121 161.588 186.762Z" fill="url(#paint8_linear_52_3142)"/>
<path d="M166.031 173.432L168.484 174.858C169.087 175.204 169.46 175.949 169.472 177.002L167.02 175.577C167.007 174.524 166.634 173.779 166.031 173.432Z" fill="url(#paint9_linear_52_3142)"/>
<path d="M161.587 186.762L159.135 185.336C158.531 184.99 158.146 184.232 158.146 183.179L160.599 184.604C160.599 185.657 160.971 186.402 161.587 186.762Z" fill="url(#paint10_linear_52_3142)"/>
<path d="M166.031 173.432L168.483 174.857C167.867 174.498 167.019 174.549 166.082 175.089L163.629 173.663C164.567 173.124 165.414 173.072 166.031 173.432Z" fill="url(#paint11_linear_52_3142)"/>
<path d="M160.599 184.605L158.133 183.179V180.714L160.586 182.139L160.599 184.605Z" fill="url(#paint12_linear_52_3142)"/>
<path d="M163.937 176.334L161.485 174.909L163.629 173.663L166.082 175.089L163.937 176.334Z" fill="url(#paint13_linear_52_3142)"/>
<path d="M167.469 168.771L165.016 167.345C166.647 166.896 168.111 167.05 169.28 167.718L171.732 169.143C170.564 168.488 169.113 168.321 167.469 168.771Z" fill="#BC4058"/>
<path d="M160.586 182.139L158.133 180.713C158.133 178.595 159.636 175.975 161.485 174.909L163.938 176.334C162.088 177.4 160.586 180.007 160.586 182.139Z" fill="url(#paint14_linear_52_3142)"/>
<path d="M158.184 192.528L155.732 191.103C154.011 190.101 152.932 187.969 152.919 184.964C152.906 181.934 153.985 178.556 155.719 175.551C156.81 173.651 158.172 171.904 159.687 170.504L162.14 171.93C160.624 173.33 159.263 175.076 158.172 176.977C156.438 179.982 155.359 183.359 155.372 186.39C155.385 189.407 156.464 191.526 158.184 192.528Z" fill="#E62020"/>
<path d="M193.409 113.153L172.439 125.263L167.456 168.783C169.087 168.334 170.551 168.488 171.72 169.156C173.466 170.158 174.545 172.276 174.558 175.32C174.571 178.351 173.492 181.728 171.771 184.733C170.037 187.738 167.649 190.358 165.003 191.886C159.726 194.929 155.398 192.464 155.372 186.402C155.359 183.372 156.438 179.994 158.172 176.989C159.263 175.089 160.624 173.342 162.14 171.943L161.973 110.893L198.79 89.6399L193.409 113.153ZM169.46 177.015C169.46 174.896 167.931 174.023 166.082 175.102L163.938 176.334C162.088 177.4 160.586 180.02 160.586 182.139L160.599 184.604C160.599 186.736 162.127 187.597 163.976 186.531L166.121 185.298C167.97 184.232 169.485 181.612 169.485 179.481L169.46 177.015Z" fill="#E86966"/>
<path d="M166.082 175.089C167.931 174.023 169.459 174.883 169.459 177.002L169.472 179.468C169.472 181.6 167.97 184.219 166.108 185.285L163.963 186.518C162.114 187.584 160.599 186.724 160.586 184.592L160.573 182.126C160.573 180.007 162.075 177.388 163.925 176.322L166.082 175.089Z" fill="#F9FAFC"/>
<path d="M162.153 171.93L159.687 170.504L159.52 109.455L161.973 110.88L162.153 171.93Z" fill="#E62020"/>
<path d="M161.973 110.88L159.52 109.455L196.337 88.1887L198.79 89.627L161.973 110.88Z" fill="#E62020"/>
<path d="M122.369 235.137L122.356 238.09L90.6371 256.518L90.6499 253.565L122.369 235.137Z" fill="#B0B5C1"/>
<path d="M9.46565e-05 234.636L0.0129364 231.682C-0.0127471 239.619 5.18815 247.555 15.6156 253.565C36.3165 265.52 70.0903 265.507 90.6627 253.565L90.6499 256.518C70.0774 268.474 36.3165 268.474 15.6028 256.518C5.17531 250.508 -0.0255888 242.559 9.46565e-05 234.636Z" fill="#CFD3DB"/>
<path d="M122.369 235.137L90.6623 253.565C70.0899 265.52 36.329 265.52 15.6153 253.565C-5.09845 241.609 -5.20118 222.051 15.3713 210.095L47.0775 191.667L122.369 235.137Z" fill="#FAE8CA"/>
<path d="M15.1148 186.929L43.7262 197.677L15.2175 246.964L15.1148 186.929Z" fill="#9DC3FE"/>
<path d="M61.7817 186.248L91.3305 203.122L15.2176 246.964L43.7262 197.677L51.8936 200.747L61.7817 186.248Z" fill="#5C9CFE"/>
<path d="M15.1148 186.929L91.2278 143.087L61.7817 186.248L51.8935 200.747L43.7262 197.677L15.1148 186.929Z" fill="#C4DBFE"/>
<path d="M91.2278 143.087L91.3306 203.122L61.7817 186.248L91.2278 143.087Z" fill="#9DC3FE"/>
<path d="M105.495 95.5472L109.013 93.5054C109.206 93.4026 109.373 93.2485 109.514 93.0559L105.996 95.0977C105.854 95.2904 105.687 95.4445 105.495 95.5472Z" fill="url(#paint15_linear_52_3142)"/>
<path d="M95.2599 64.3546C94.4637 63.5071 93.6932 62.621 92.9355 61.7092C91.7669 62.3898 90.5983 63.0705 89.4169 63.7511C90.1745 64.6628 90.945 65.5489 91.7412 66.3965C92.9098 65.7159 94.0784 65.0352 95.2599 64.3546Z" fill="url(#paint16_linear_52_3142)"/>
<path d="M95.26 64.3545C94.0914 65.0351 92.9228 65.7157 91.7413 66.3963C91.7927 66.4477 91.8441 66.4991 91.8954 66.5633C93.064 65.8827 94.2326 65.202 95.4141 64.5214C95.3627 64.4701 95.3113 64.4059 95.26 64.3545Z" fill="url(#paint17_linear_52_3142)"/>
<path d="M106.484 73.4979C102.554 71.2249 98.8043 68.1429 95.4012 64.5215C94.2326 65.2021 93.064 65.8827 91.8826 66.5633C95.2856 70.1847 99.0354 73.2667 102.965 75.5397C104.031 74.9233 105.431 74.1014 106.484 73.4979Z" fill="url(#paint18_linear_52_3142)"/>
<path d="M106.009 95.0977L109.514 93.0559L117.643 82.5898L114.137 84.6317L106.009 95.0977Z" fill="#E62020"/>
<path d="M118.131 82.166L114.612 84.2079C114.433 84.3106 114.266 84.4518 114.137 84.6316L117.656 82.5898C117.784 82.41 117.938 82.2687 118.131 82.166Z" fill="url(#paint19_linear_52_3142)"/>
<path d="M78.1033 24.3141C78.129 15.3377 81.3009 9.01956 86.4119 6.04028L82.8933 8.09496C77.7822 11.0614 74.6103 17.3795 74.5847 26.3687C74.5461 38.7995 80.5432 53.0924 89.4169 63.7639C90.5854 63.0833 91.7541 62.4026 92.9355 61.722C84.0619 51.0377 78.0648 36.7449 78.1033 24.3141Z" fill="url(#paint20_linear_52_3142)"/>
<path d="M126.761 75.4756C121.586 78.4805 114.407 78.0568 106.497 73.4851L102.978 75.5269C110.901 80.0986 118.067 80.5224 123.242 77.5174C124.295 76.901 125.708 76.092 126.761 75.4756Z" fill="url(#paint21_linear_52_3142)"/>
<path d="M86.4119 6.05311L82.8933 8.09495C88.0685 5.08999 95.2471 5.51376 103.158 10.0854L106.676 8.04358C98.7528 3.45909 91.5872 3.03531 86.4119 6.05311Z" fill="white"/>
<path d="M83.4583 2.175L79.9397 4.21683C85.8341 0.788091 94.0784 1.30176 103.17 6.55403L106.689 4.51219C97.5842 -0.740075 89.3527 -1.25374 83.4583 2.175Z" fill="#BC4058"/>
<path d="M123.242 77.5175L126.761 75.4756C131.872 72.5092 135.043 66.1911 135.069 57.2147C135.121 39.1335 122.407 17.1228 106.676 8.0437L103.157 10.0855C118.889 19.1646 131.602 41.1882 131.551 59.2565C131.525 68.2329 128.353 74.551 123.242 77.5175Z" fill="white"/>
<path d="M103.157 10.0727C87.4264 0.993551 74.636 8.27481 74.5846 26.356C74.5333 44.4243 87.2466 66.4479 102.978 75.527C118.709 84.6061 131.499 77.3248 131.551 59.2436C131.602 41.1753 118.889 19.1646 103.157 10.0727Z" fill="white"/>
<path d="M126.196 81.8836L129.714 79.8418C135.403 76.5415 138.909 69.5813 138.935 59.6803C138.986 39.5188 124.552 14.8241 106.689 4.51221L103.17 6.55404C121.033 16.866 135.467 41.5606 135.416 61.7221C135.39 71.6231 131.872 78.5833 126.196 81.8836Z" fill="#E62020"/>
<path d="M135.416 61.7349C135.377 76.7469 127.3 85.017 115.794 83.9768C115.113 83.9126 114.522 84.1309 114.137 84.6317L106.008 95.1106C105.328 95.9967 104.172 95.971 103.029 95.3032C101.848 94.6226 100.679 93.2742 100.011 91.5406L92.8457 72.9072C92.4476 71.8542 91.7926 70.8782 91.035 70.0949C79.0922 57.831 70.668 39.7756 70.7193 24.3783C70.7707 4.2168 85.3076 -3.75791 103.17 6.554C121.033 16.8787 135.48 41.5734 135.416 61.7349ZM102.978 75.5398C118.709 84.6189 131.499 77.3376 131.551 59.2565C131.602 41.1753 118.889 19.1646 103.158 10.0855C87.4264 1.00637 74.6361 8.28763 74.5847 26.3688C74.5333 44.4371 87.2467 66.4478 102.978 75.5398Z" fill="#E86966"/>
<path d="M97.7512 40.6744L98.5602 40.1992L81.3908 46.0936L80.5818 46.5687L97.7512 40.6744Z" fill="url(#paint22_linear_52_3142)"/>
<path d="M80.5817 47.4806C80.6845 47.4806 80.7744 47.4678 80.8771 47.4292L98.0465 41.5349C98.0979 41.5221 98.1621 41.4964 98.2134 41.4578L99.0225 40.9827C99.4206 40.7515 99.5875 40.2507 99.3949 39.8269C99.2023 39.4032 98.7143 39.1977 98.2776 39.3518L81.1082 45.2462C81.0569 45.259 80.9927 45.2847 80.9413 45.3232L80.1323 45.7983C79.7342 46.0295 79.5672 46.5303 79.7599 46.9541C79.9011 47.2751 80.235 47.4806 80.5817 47.4806Z" fill="white"/>
<path d="M97.7513 40.6745L98.5603 40.1994L81.4808 15.5176L80.6589 15.9927L97.7513 40.6745Z" fill="url(#paint23_linear_52_3142)"/>
<path d="M97.7512 41.5733C97.9053 41.5733 98.0594 41.5348 98.2006 41.4449L99.0096 40.9697C99.228 40.8413 99.3821 40.6359 99.4334 40.379C99.4848 40.135 99.4334 39.8782 99.2922 39.6599L82.2255 15.0038C81.9558 14.6185 81.4293 14.5029 81.0184 14.7341L80.2094 15.2092C79.991 15.3376 79.8369 15.5431 79.7856 15.7999C79.7342 16.0439 79.7856 16.3008 79.9268 16.5191L97.0192 41.2009C97.1861 41.4449 97.4686 41.5733 97.7512 41.5733Z" fill="white"/>
<path d="M80.6587 15.9927L80.5817 46.5688L97.7511 40.6745L80.6587 15.9927Z" fill="#E86966"/>
<path d="M80.0552 47.3009C79.8112 47.134 79.6699 46.8514 79.6699 46.5561L79.7598 15.9799C79.7598 15.5818 80.0166 15.2351 80.4019 15.1195C80.7743 15.0039 81.1852 15.1452 81.4164 15.4662L98.4959 40.1609C98.6628 40.392 98.7014 40.6874 98.6115 40.9571C98.5216 41.2268 98.3161 41.4451 98.0464 41.535L80.877 47.4293C80.7872 47.4678 80.6844 47.4807 80.5817 47.4807C80.3891 47.4807 80.2093 47.4165 80.0552 47.3009ZM81.5577 18.8821L81.4806 45.2976L96.3128 40.1994L81.5577 18.8821Z" fill="white"/>
<path d="M100.589 44.7711L101.398 44.296L98.5602 40.1995L97.7512 40.6746L100.589 44.7711Z" fill="url(#paint24_linear_52_3142)"/>
<path d="M100.589 45.6699C100.743 45.6699 100.897 45.6314 101.039 45.5415L101.848 45.0664C102.066 44.938 102.22 44.7325 102.271 44.4757C102.323 44.2317 102.271 43.9748 102.13 43.7565L99.2922 39.66C99.0225 39.2748 98.496 39.1592 98.085 39.3903L97.276 39.8655C97.0577 39.9939 96.9036 40.1994 96.8522 40.4562C96.8009 40.7002 96.8522 40.957 96.9935 41.1753L99.8315 45.2718C100.024 45.5415 100.307 45.6699 100.589 45.6699Z" fill="white"/>
<path d="M103.53 43.9363L104.339 43.4612L101.398 44.2959L100.589 44.771L103.53 43.9363Z" fill="url(#paint25_linear_52_3142)"/>
<path d="M100.589 45.6701C100.666 45.6701 100.756 45.6572 100.833 45.6315L103.774 44.7968C103.851 44.7711 103.915 44.7455 103.979 44.7069L104.788 44.2318C105.186 44.0006 105.341 43.5126 105.174 43.0889C104.994 42.6651 104.532 42.4468 104.095 42.5752L101.154 43.4099C101.077 43.4356 101.013 43.4613 100.949 43.4998L100.14 43.9749C99.7416 44.2061 99.5875 44.6941 99.7544 45.1179C99.8957 45.4646 100.23 45.6701 100.589 45.6701Z" fill="white"/>
<path d="M103.53 43.9364L100.589 44.7711L97.7511 40.6746L80.5817 46.5689L120.519 69.6327V69.4657L103.53 43.9364Z" fill="#E86966"/>
<path d="M120.07 70.4159L80.1194 47.3521C79.8112 47.1724 79.6314 46.8385 79.67 46.4789C79.7085 46.1193 79.9396 45.824 80.2735 45.7084L97.4558 39.8141C97.841 39.6856 98.2648 39.8269 98.4959 40.1608L100.962 43.7179L103.273 43.063C103.645 42.9474 104.056 43.1015 104.275 43.4354L121.277 68.9648C121.38 69.1189 121.431 69.2858 121.431 69.4656V69.6326C121.431 69.9536 121.251 70.249 120.982 70.4159C120.841 70.4929 120.686 70.5315 120.532 70.5315C120.365 70.5443 120.211 70.4929 120.07 70.4159ZM100.833 45.6442C100.461 45.7469 100.063 45.6057 99.8443 45.2846L97.4044 41.7531L82.7648 46.7871L117.823 67.0257L103.145 44.9893L100.833 45.6442Z" fill="white"/>
<path d="M120.519 69.4657L121.341 68.9905L104.339 43.4612L103.53 43.9363L120.519 69.4657Z" fill="url(#paint26_linear_52_3142)"/>
<path d="M120.532 70.3645C120.686 70.3645 120.84 70.326 120.982 70.2361L121.791 69.7609C122.009 69.6325 122.163 69.4271 122.215 69.1831C122.266 68.9391 122.227 68.6822 122.086 68.4768L105.097 42.9602C104.827 42.5622 104.3 42.4337 103.889 42.6777L103.08 43.1529C102.862 43.2813 102.708 43.4868 102.657 43.7308C102.605 43.9747 102.644 44.2316 102.785 44.437L119.787 69.9664C119.942 70.2232 120.237 70.3645 120.532 70.3645Z" fill="white"/>
<path d="M120.519 69.6326L121.341 69.1574V68.9905L120.519 69.4656V69.6326Z" fill="url(#paint27_linear_52_3142)"/>
<path d="M120.519 70.5444C120.674 70.5444 120.84 70.5059 120.969 70.416L121.778 69.9409C122.06 69.7739 122.227 69.4786 122.227 69.1575V68.9906C122.227 68.6695 122.06 68.3613 121.778 68.2072C121.495 68.0403 121.149 68.0403 120.866 68.2072L120.057 68.6824C119.775 68.8493 119.608 69.1447 119.608 69.4657V69.6327C119.608 69.9537 119.775 70.2619 120.057 70.416C120.211 70.4931 120.365 70.5444 120.519 70.5444Z" fill="white"/>
<path d="M120.609 39.0564L121.418 38.5813L104.339 43.4612L103.53 43.9363L120.609 39.0564Z" fill="url(#paint28_linear_52_3142)"/>
<path d="M103.53 44.8351C103.607 44.8351 103.697 44.8222 103.774 44.7965L120.853 39.9167C120.93 39.891 120.995 39.8653 121.059 39.8268L121.868 39.3517C122.266 39.1205 122.42 38.6325 122.24 38.2087C122.06 37.785 121.598 37.5667 121.162 37.6951L104.082 42.5749C104.005 42.6006 103.941 42.6263 103.877 42.6648L103.068 43.14C102.669 43.3711 102.515 43.8591 102.682 44.2829C102.836 44.6296 103.17 44.8351 103.53 44.8351Z" fill="white"/>
<path d="M120.609 39.0565L121.418 38.5813L81.4804 15.5176L80.6586 15.9927L120.609 39.0565Z" fill="url(#paint29_linear_52_3142)"/>
<path d="M120.609 39.9553C120.763 39.9553 120.93 39.9167 121.072 39.8268L121.881 39.3517C122.163 39.1847 122.33 38.8894 122.33 38.5683C122.33 38.2473 122.163 37.9519 121.881 37.785L81.93 14.7341C81.6475 14.5672 81.3008 14.5672 81.0183 14.7341L80.2092 15.2092C79.9267 15.3762 79.7598 15.6715 79.7598 15.9926C79.7598 16.3136 79.9267 16.609 80.2092 16.7759L120.16 39.8397C120.301 39.9167 120.455 39.9553 120.609 39.9553Z" fill="white"/>
<path d="M120.61 39.0566L103.53 43.9365L120.52 69.4659L120.61 39.0566Z" fill="#E86966"/>
<path d="M119.775 69.9665L102.772 44.4372C102.618 44.1932 102.58 43.8978 102.682 43.6153C102.785 43.3456 103.003 43.1402 103.286 43.0503L120.365 38.1704C120.635 38.0934 120.93 38.1447 121.162 38.3245C121.393 38.4915 121.521 38.7611 121.521 39.0565L121.431 69.4657C121.431 69.8638 121.174 70.2105 120.789 70.3261C120.699 70.3518 120.609 70.3646 120.532 70.3646C120.224 70.3646 119.942 70.2234 119.775 69.9665ZM104.968 44.4629L119.621 66.4736L119.698 40.2508L104.968 44.4629Z" fill="white"/>
<path d="M120.519 69.4657L121.341 68.9905L121.418 38.5813L120.609 39.0564L120.519 69.4657Z" fill="url(#paint30_linear_52_3142)"/>
<path d="M120.519 70.3646C120.674 70.3646 120.84 70.3261 120.969 70.2362L121.778 69.761C122.06 69.5941 122.227 69.2987 122.227 68.9777L122.317 38.5685C122.317 38.2474 122.15 37.9392 121.868 37.7851C121.585 37.6182 121.239 37.6182 120.956 37.7851L120.147 38.2603C119.864 38.4272 119.698 38.7226 119.698 39.0436L119.608 69.4528C119.608 69.7739 119.775 70.0821 120.057 70.2362C120.211 70.3261 120.365 70.3646 120.519 70.3646Z" fill="white"/>
<path d="M80.6587 15.9927L97.751 40.6745L100.589 44.771L103.53 43.9363L120.609 39.0564L80.6587 15.9927Z" fill="#E86966"/>
<path d="M99.8443 45.2848L79.914 16.5064C79.67 16.1597 79.7085 15.6846 79.991 15.3764C80.2735 15.0682 80.7487 14.9911 81.1083 15.2094L121.059 38.2732C121.38 38.453 121.547 38.8125 121.508 39.1721C121.47 39.5317 121.213 39.827 120.853 39.9298L100.833 45.6443C100.756 45.67 100.666 45.6829 100.589 45.6829C100.294 45.67 100.011 45.5288 99.8443 45.2848ZM83.7151 18.7923L100.974 43.7181L118.311 38.7612L83.7151 18.7923Z" fill="white"/>
<path d="M179.784 179.969L208.396 190.717L179.887 240.004L179.784 179.969Z" fill="#9DC3FE"/>
<path d="M226.451 179.288L256 196.162L179.887 240.004L208.396 190.717L216.563 193.786L226.451 179.288Z" fill="#5C9CFE"/>
<path d="M179.784 179.969L255.897 136.127L226.451 179.288L216.563 193.786L208.396 190.717L179.784 179.969Z" fill="#C4DBFE"/>
<path d="M255.897 136.127L256 196.162L226.451 179.288L255.897 136.127Z" fill="#9DC3FE"/>
<defs>
<linearGradient id="paint0_linear_52_3142" x1="103.181" y1="102.183" x2="157.203" y2="227.541" gradientUnits="userSpaceOnUse">
<stop stop-color="white"/>
<stop offset="1" stop-color="#FFE7E1"/>
</linearGradient>
<linearGradient id="paint1_linear_52_3142" x1="90.1727" y1="107.788" x2="144.195" y2="233.147" gradientUnits="userSpaceOnUse">
<stop stop-color="white"/>
<stop offset="1" stop-color="#FFE7E1"/>
</linearGradient>
<linearGradient id="paint2_linear_52_3142" x1="50.1343" y1="125.043" x2="104.156" y2="250.401" gradientUnits="userSpaceOnUse">
<stop stop-color="white"/>
<stop offset="1" stop-color="#FFE7E1"/>
</linearGradient>
<linearGradient id="paint3_linear_52_3142" x1="101.698" y1="102.822" x2="155.72" y2="228.18" gradientUnits="userSpaceOnUse">
<stop stop-color="white"/>
<stop offset="1" stop-color="#FFE7E1"/>
</linearGradient>
<linearGradient id="paint4_linear_52_3142" x1="107.565" y1="151.843" x2="111.726" y2="151.843" gradientUnits="userSpaceOnUse">
<stop stop-color="#343544"/>
<stop offset="0.9944" stop-color="#413B5E"/>
</linearGradient>
<linearGradient id="paint5_linear_52_3142" x1="163.656" y1="181.671" x2="169.473" y2="181.671" gradientUnits="userSpaceOnUse">
<stop stop-color="#E23C5E"/>
<stop offset="0.5642" stop-color="#ED6E97"/>
<stop offset="1" stop-color="#ED9197"/>
</linearGradient>
<linearGradient id="paint6_linear_52_3142" x1="161.511" y1="185.198" x2="166.114" y2="185.198" gradientUnits="userSpaceOnUse">
<stop stop-color="#E23C5E"/>
<stop offset="0.5642" stop-color="#ED6E97"/>
<stop offset="1" stop-color="#ED9197"/>
</linearGradient>
<linearGradient id="paint7_linear_52_3142" x1="167.008" y1="177.53" x2="169.473" y2="177.53" gradientUnits="userSpaceOnUse">
<stop stop-color="#E23C5E"/>
<stop offset="0.5642" stop-color="#ED6E97"/>
<stop offset="1" stop-color="#ED9197"/>
</linearGradient>
<linearGradient id="paint8_linear_52_3142" x1="159.124" y1="186.046" x2="163.969" y2="186.046" gradientUnits="userSpaceOnUse">
<stop stop-color="#E23C5E"/>
<stop offset="0.5642" stop-color="#ED6E97"/>
<stop offset="1" stop-color="#ED9197"/>
</linearGradient>
<linearGradient id="paint9_linear_52_3142" x1="166.025" y1="175.223" x2="169.466" y2="175.223" gradientUnits="userSpaceOnUse">
<stop stop-color="#E23C5E"/>
<stop offset="0.5642" stop-color="#ED6E97"/>
<stop offset="1" stop-color="#ED9197"/>
</linearGradient>
<linearGradient id="paint10_linear_52_3142" x1="120.763" y1="94.606" x2="174.784" y2="219.964" gradientUnits="userSpaceOnUse">
<stop stop-color="white"/>
<stop offset="1" stop-color="#FFE7E1"/>
</linearGradient>
<linearGradient id="paint11_linear_52_3142" x1="130.01" y1="90.6211" x2="184.031" y2="215.979" gradientUnits="userSpaceOnUse">
<stop stop-color="white"/>
<stop offset="1" stop-color="#FFE7E1"/>
</linearGradient>
<linearGradient id="paint12_linear_52_3142" x1="121.317" y1="94.3674" x2="175.339" y2="219.726" gradientUnits="userSpaceOnUse">
<stop stop-color="white"/>
<stop offset="1" stop-color="#FFE7E1"/>
</linearGradient>
<linearGradient id="paint13_linear_52_3142" x1="127.827" y1="91.5614" x2="181.849" y2="216.92" gradientUnits="userSpaceOnUse">
<stop stop-color="white"/>
<stop offset="1" stop-color="#FFE7E1"/>
</linearGradient>
<linearGradient id="paint14_linear_52_3142" x1="124.23" y1="93.1118" x2="178.252" y2="218.47" gradientUnits="userSpaceOnUse">
<stop stop-color="white"/>
<stop offset="1" stop-color="#FFE7E1"/>
</linearGradient>
<linearGradient id="paint15_linear_52_3142" x1="109.516" y1="94.3066" x2="105.497" y2="94.3066" gradientUnits="userSpaceOnUse">
<stop stop-color="#E23C5E"/>
<stop offset="0.5642" stop-color="#ED6E97"/>
<stop offset="1" stop-color="#ED9197"/>
</linearGradient>
<linearGradient id="paint16_linear_52_3142" x1="95.2559" y1="64.0534" x2="89.4133" y2="64.0534" gradientUnits="userSpaceOnUse">
<stop stop-color="#E23C5E"/>
<stop offset="0.5642" stop-color="#ED6E97"/>
<stop offset="1" stop-color="#ED9197"/>
</linearGradient>
<linearGradient id="paint17_linear_52_3142" x1="95.4085" y1="65.4581" x2="91.742" y2="65.4581" gradientUnits="userSpaceOnUse">
<stop stop-color="#E23C5E"/>
<stop offset="0.5642" stop-color="#ED6E97"/>
<stop offset="1" stop-color="#ED9197"/>
</linearGradient>
<linearGradient id="paint18_linear_52_3142" x1="106.489" y1="70.0263" x2="91.8945" y2="70.0263" gradientUnits="userSpaceOnUse">
<stop stop-color="#E23C5E"/>
<stop offset="0.5642" stop-color="#ED6E97"/>
<stop offset="1" stop-color="#ED9197"/>
</linearGradient>
<linearGradient id="paint19_linear_52_3142" x1="118.125" y1="83.3951" x2="114.131" y2="83.3951" gradientUnits="userSpaceOnUse">
<stop stop-color="#E23C5E"/>
<stop offset="0.5642" stop-color="#ED6E97"/>
<stop offset="1" stop-color="#ED9197"/>
</linearGradient>
<linearGradient id="paint20_linear_52_3142" x1="92.9273" y1="34.9007" x2="74.5832" y2="34.9007" gradientUnits="userSpaceOnUse">
<stop stop-color="#E23C5E"/>
<stop offset="0.5642" stop-color="#ED6E97"/>
<stop offset="1" stop-color="#ED9197"/>
</linearGradient>
<linearGradient id="paint21_linear_52_3142" x1="126.758" y1="76.467" x2="102.975" y2="76.467" gradientUnits="userSpaceOnUse">
<stop stop-color="#E23C5E"/>
<stop offset="0.5642" stop-color="#ED6E97"/>
<stop offset="1" stop-color="#ED9197"/>
</linearGradient>
<linearGradient id="paint22_linear_52_3142" x1="98.5644" y1="43.3851" x2="80.5784" y2="43.3851" gradientUnits="userSpaceOnUse">
<stop stop-color="#E23C5E"/>
<stop offset="0.5642" stop-color="#ED6E97"/>
<stop offset="1" stop-color="#ED9197"/>
</linearGradient>
<linearGradient id="paint23_linear_52_3142" x1="98.5645" y1="28.0943" x2="80.6652" y2="28.0943" gradientUnits="userSpaceOnUse">
<stop stop-color="#E23C5E"/>
<stop offset="0.5642" stop-color="#ED6E97"/>
<stop offset="1" stop-color="#ED9197"/>
</linearGradient>
<linearGradient id="paint24_linear_52_3142" x1="101.4" y1="42.4849" x2="97.7534" y2="42.4849" gradientUnits="userSpaceOnUse">
<stop stop-color="#E23C5E"/>
<stop offset="0.5642" stop-color="#ED6E97"/>
<stop offset="1" stop-color="#ED9197"/>
</linearGradient>
<linearGradient id="paint25_linear_52_3142" x1="104.337" y1="44.1141" x2="100.589" y2="44.1141" gradientUnits="userSpaceOnUse">
<stop stop-color="#E23C5E"/>
<stop offset="0.5642" stop-color="#ED6E97"/>
<stop offset="1" stop-color="#ED9197"/>
</linearGradient>
<linearGradient id="paint26_linear_52_3142" x1="121.336" y1="56.4601" x2="103.526" y2="56.4601" gradientUnits="userSpaceOnUse">
<stop stop-color="#E23C5E"/>
<stop offset="0.5642" stop-color="#ED6E97"/>
<stop offset="1" stop-color="#ED9197"/>
</linearGradient>
<linearGradient id="paint27_linear_52_3142" x1="121.336" y1="69.3109" x2="120.525" y2="69.3109" gradientUnits="userSpaceOnUse">
<stop stop-color="#E23C5E"/>
<stop offset="0.5642" stop-color="#ED6E97"/>
<stop offset="1" stop-color="#ED9197"/>
</linearGradient>
<linearGradient id="paint28_linear_52_3142" x1="121.423" y1="41.2551" x2="103.526" y2="41.2551" gradientUnits="userSpaceOnUse">
<stop stop-color="#E23C5E"/>
<stop offset="0.5642" stop-color="#ED6E97"/>
<stop offset="1" stop-color="#ED9197"/>
</linearGradient>
<linearGradient id="paint29_linear_52_3142" x1="121.422" y1="27.2834" x2="80.6649" y2="27.2834" gradientUnits="userSpaceOnUse">
<stop stop-color="#E23C5E"/>
<stop offset="0.5642" stop-color="#ED6E97"/>
<stop offset="1" stop-color="#ED9197"/>
</linearGradient>
<linearGradient id="paint30_linear_52_3142" x1="121.423" y1="54.0199" x2="120.525" y2="54.0199" gradientUnits="userSpaceOnUse">
<stop stop-color="#E23C5E"/>
<stop offset="0.5642" stop-color="#ED6E97"/>
<stop offset="1" stop-color="#ED9197"/>
</linearGradient>
</defs>
</svg>
